<svg width="164" height="60" fill="none" xmlns="http://www.w3.org/2000/svg"><mask id="b" style="mask-type:alpha" maskUnits="userSpaceOnUse" x="0" y="0" width="164" height="60"><g clip-path="url(#a)"><path d="M134.674 0c-6.537 0-12.608 2.226-17.558 6-4.95-3.774-11.02-6-17.558-6S86.95 2.226 82 6c-4.95-3.774-10.927-6-17.558-6-6.538 0-12.608 2.226-17.558 6-4.857-3.774-10.927-6-17.558-6C13.168 0 0 13.45 0 30c0 16.548 13.168 30 29.326 30 6.537 0 12.608-2.226 17.558-6 4.95 3.774 11.02 6 17.558 6S77.05 57.774 82 54c4.856 3.774 10.927 6 17.558 6 6.538 0 12.608-2.226 17.558-6 4.857 3.774 10.927 6 17.558 6C150.831 60 164 46.548 164 30c0-16.549-13.169-30-29.326-30Zm-17.558 45.484A23.805 23.805 0 0 1 111.419 30a23.805 23.805 0 0 1 5.697-15.484A23.805 23.805 0 0 1 122.813 30a23.805 23.805 0 0 1-5.697 15.484Zm-35.116 0A23.805 23.805 0 0 1 76.303 30 23.805 23.805 0 0 1 82 14.516 23.805 23.805 0 0 1 87.697 30 23.805 23.805 0 0 1 82 45.484Zm-35.116 0A23.805 23.805 0 0 1 41.187 30a23.805 23.805 0 0 1 5.697-15.484A23.805 23.805 0 0 1 52.58 30c.093 5.903-2.148 11.322-5.697 15.484ZM6.07 30c0-13.065 10.46-23.71 23.255-23.71 4.763 0 9.246 1.452 12.981 4.065-4.482 5.225-7.19 12.096-7.19 19.645 0 7.548 2.708 14.42 7.19 19.645-3.735 2.516-8.125 4.064-12.981 4.064C16.53 53.71 6.07 43.064 6.07 30Zm45.39 19.645c4.482-5.226 7.19-12.097 7.19-19.645 0-7.549-2.708-14.42-7.19-19.645 3.735-2.517 8.124-4.065 12.98-4.065 4.857 0 9.247 1.452 12.983 4.065C72.94 15.58 70.139 22.45 70.139 30c0 7.548 2.708 14.42 7.285 19.645-3.736 2.516-8.126 4.064-12.982 4.064-4.763 0-9.246-1.548-12.982-4.064Zm35.115 0C91.06 44.419 93.861 37.548 93.861 30c0-7.549-2.708-14.42-7.285-19.645 3.736-2.517 8.126-4.065 12.982-4.065 4.857 0 9.246 1.452 12.982 4.065-4.483 5.225-7.285 12.096-7.285 19.645 0 7.548 2.709 14.42 7.285 19.645-3.736 2.516-8.125 4.064-12.982 4.064-4.856 0-9.246-1.548-12.982-4.064Zm48.098 4.064c-4.763 0-9.246-1.451-12.982-4.064 4.483-5.226 7.285-12.097 7.285-19.645 0-7.549-2.708-14.42-7.285-19.645 3.736-2.517 8.126-4.065 12.982-4.065 12.795 0 23.255 10.645 23.255 23.71 0 13.064-10.46 23.71-23.255 23.71Z" fill="#4D4775"/></g></mask><g mask="url(#b)"><path fill="#A5B3C3" d="M-27-39h210V89H-27z"/></g><defs><clipPath id="a"><path fill="#fff" d="M0 0h164v60H0z"/></clipPath></defs></svg>