<svg width="96" height="96" fill="none" xmlns="http://www.w3.org/2000/svg"><mask id="b" style="mask-type:alpha" maskUnits="userSpaceOnUse" x="0" y="0" width="96" height="96"><g clip-path="url(#a)" fill="#4D4775"><path d="M76.445 48c0 15.72-12.725 28.444-28.445 28.444V48h28.445ZM48 19.555V48H19.556c0-15.72 12.724-28.445 28.444-28.445Z"/><path d="M48 19.556v1.56c14.823 0 26.885 12.058 26.885 26.884h1.56c0-15.709-12.736-28.444-28.445-28.444Zm0 55.329c-14.823 0-26.885-12.06-26.885-26.885h-1.56c0 15.709 12.736 28.445 28.445 28.445M48 0C21.491 0 0 21.491 0 48s21.491 48 48 48 48-21.491 48-48S74.509 0 48 0Zm44.879 48c0 24.785-20.092 44.879-44.879 44.879S3.121 72.785 3.121 48C3.121 23.215 23.215 3.121 48 3.121c24.785 0 44.879 20.094 44.879 44.879Z"/><path d="M27.488 24.844c1.534-1.605 2.402-3.458.868-5.228-.834-.96-2.236-1.17-3.397-.697l-.116.044.037-.1c.172-.457.282-1.913-.967-2.918-.61-.49-1.374-.672-2.146-.594-1.44.146-2.549 1.123-5.566 4.464a72.354 72.354 0 0 0-3.031 3.629l8.287 7.807c2.746-3.019 3.865-4.142 6.03-6.407Zm-10.813-1.91c1.669-2.027 3.442-3.867 4.246-4.595.254-.23.53-.46.866-.549.544-.148 1.105.235 1.232.79.127.557-.226 1.086-.618 1.523-.882.989-4.12 4.352-4.12 4.352l-1.606-1.52Zm3.245 3.058s3.152-3.31 4.181-4.368c.41-.42.672-.675.954-.812.363-.177.76-.213 1.116.022.35.232.51.633.423 1.03-.104.474-.493.924-.815 1.269l-4.178 4.441-1.681-1.582Zm29.028-10.459L51.6 9.631l.17-.524-.049.546.28 7.888c.93.087 1.891.216 2.839.372l-.432-11.682a59.293 59.293 0 0 0-3.964-.305l-2.614 6.443-.093.479-.093-.479-2.61-6.443c-1.32.056-2.64.16-3.965.305l-.432 11.682a42.443 42.443 0 0 1 2.84-.372l.279-7.888-.048-.546.17.524 2.652 5.902h2.417Zm22.035 12.212A41.43 41.43 0 0 1 73.1 30.24l9.711-6.121a64.285 64.285 0 0 0-1.836-2.263l-6.149 4.038-.42.358.313-.453 2.715-5.382-1.92-1.907-5.422 2.696-.457.311L70 21.1l4.069-6.104a59.242 59.242 0 0 0-2.281-1.832L65.623 22.8c.78.596 1.81 1.473 2.467 2.069l5.803-2.99.372-.272-.274.37-3.008 5.768Z"/></g></mask><g mask="url(#b)"><path fill="#A5B3C3" d="M-94.989-25.263h288v143.495h-288z"/></g><defs><clipPath id="a"><path fill="#fff" d="M0 0h96v96H0z"/></clipPath></defs></svg>