<svg width="124" height="78" fill="none" xmlns="http://www.w3.org/2000/svg"><mask id="b" style="mask-type:alpha" maskUnits="userSpaceOnUse" x="0" y="0" width="124" height="78"><g clip-path="url(#a)" fill="#000"><path d="m14.256 65.373 1.884.223c.852.09.942.805.942 1.252v2.19H8.424v-2.19c0-.447.09-1.163.942-1.252l1.884-.224v-1.877H.035v1.878l1.884.223c.853.09.942.805.942 1.252v7.24c0 .448-.09 1.163-.942 1.252l-1.884.224v1.877H11.25v-1.877l-1.884-.224c-.852-.089-.942-.804-.942-1.251v-2.19h8.613v2.19c0 .447-.09 1.162-.942 1.251l-1.884.224v1.877h11.215v-1.877l-1.884-.224c-.853-.089-.942-.804-.942-1.251v-7.241c0-.447.09-1.163.942-1.252l1.884-.224v-1.877H14.211v1.878h.045Zm74.692-1.878H75.13v1.878l1.66.178c.583.09.986.313.986 1.118v7.375c0 .447-.09 1.162-.942 1.252l-1.884.223v1.877h13.997c5.024 0 9.151-2.01 9.151-6.972 0-4.962-4.127-6.929-9.151-6.929ZM87.916 74.76h-4.71v-8.582h4.71c2.781 0 3.723 1.296 3.723 4.291 0 2.95-.942 4.291-3.723 4.291Z"/><path d="M121.606 75.34c-.897-.089-1.167-.67-1.436-1.072l-6.46-9.834c-.448-.715-.807-.939-1.48-.939h-10.587v1.878l2.557.268a.727.727 0 0 1 .449 1.162l-4.8 7.733c-.18.313-.449.67-.987.76l-1.884.223v1.877h8.927V75.52l-1.526-.134c-.672-.09-1.031-.536-.672-1.073l.717-1.162h8.613l.629.939c.583.85-.135 1.207-.763 1.251l-1.57.18v1.877h12.112V75.52l-1.839-.179Zm-15.701-4.648 2.646-4.291 2.827 4.29h-5.473Zm-40.778-5.319 1.884.223c.852.09.942.805.942 1.252v6.973l-7.402-9.745c-.314-.447-.628-.58-1.435-.58h-9.6v1.877l1.884.223c.852.09.942.805.942 1.252v7.24c0 .448-.09 1.163-.942 1.252l-1.884.224v1.877h8.972v-1.877l-1.885-.224c-.852-.089-.942-.804-.942-1.251v-6.973l7.402 9.7c.36.447.628.58 1.436.58h6.819V66.804c0-.447.09-1.162.942-1.252l1.884-.223V63.45h-8.927l-.09 1.922Zm-27.679-2.37c-9.107 0-11.44 3.979-11.44 7.42 0 3.442 2.334 7.465 11.44 7.465 9.107 0 11.44-3.978 11.44-7.42 0-3.486-2.333-7.465-11.44-7.465Zm0 12.248c-3.544 0-4.98-1.475-4.98-4.783 0-3.308 1.481-4.783 4.98-4.783 3.544 0 4.98 1.475 4.98 4.783 0 3.308-1.436 4.783-4.98 4.783ZM77.24 4.716c-1.526 6.839-2.154 10.012-3.41 14.93-1.211 4.737-2.153 9.162-3.768 11.308-1.615 2.19-3.813 2.637-5.294 2.816-.763.09-1.346.134-3.006.134-1.66 0-2.243-.045-3.005-.134-1.48-.179-3.679-.626-5.294-2.816-1.615-2.146-2.557-6.57-3.723-11.309-1.256-4.961-1.884-8.09-3.41-14.93 0 0-1.525.045-2.198.09-.942.045-1.66.134-2.422.224 0 0 .897 14.08 1.3 20.07a1476.59 1476.59 0 0 0 1.84 24.852s1.301.224 3.454.313c2.243.134 3.275.134 3.275.134.942-3.531 2.064-8.403 3.365-10.504 1.076-1.699 2.691-1.877 3.633-2.011a28.706 28.706 0 0 1 3.23-.224c.584 0 1.795 0 3.23.224.942.134 2.557.312 3.634 2.01 1.3 2.102 2.467 6.974 3.364 10.505 0 0 .987 0 3.23-.134 2.154-.134 3.455-.313 3.455-.313.672-8 1.435-18.55 1.839-24.852.404-5.945 1.3-20.07 1.3-20.07a34.638 34.638 0 0 0-2.422-.224 88.257 88.257 0 0 0-2.198-.09Z"/><path d="M95.05 13.03c-.898-8.94-6.91-10.817-12.158-11.711C80.245.872 75.535.514 72.53.379 69.882.202 63.691.113 61.807.113c-1.884 0-8.075.09-10.722.268-3.005.134-7.716.492-10.362.939-5.249.894-11.26 2.77-12.157 11.71-.27 2.46-.314 5.633-.27 9.03.09 5.677.584 9.476.853 12.158.18 1.833.942 7.286 1.929 10.102 1.346 3.889 2.557 5.006 3.992 6.169 2.602 2.1 6.909 2.771 7.806 2.95 4.845.85 14.624 1.028 18.976 1.028 4.306 0 14.13-.134 18.976-1.028.897-.179 5.203-.805 7.805-2.95 1.436-1.163 2.647-2.28 3.993-6.169.987-2.816 1.75-8.314 1.929-10.102.269-2.637.762-6.481.852-12.158-.045-3.442-.134-6.616-.359-9.03Zm-3.32 15.019c-.539 7.151-1.167 11.443-2.064 14.527-.807 2.727-1.794 4.514-3.23 5.81-2.422 2.191-5.742 2.638-7.716 2.95-4.217.627-11.35.85-16.912.85-5.608 0-12.696-.223-16.912-.85-1.974-.312-5.294-.759-7.716-2.95-1.436-1.296-2.423-3.128-3.23-5.81-.897-3.084-1.57-7.376-2.064-14.527-.314-4.291-.269-11.264.225-15.02.672-5.631 3.454-8.447 9.42-9.475 2.782-.492 6.55-.85 10.094-1.029 2.87-.178 7.536-.268 10.183-.268 2.602-.044 7.312.09 10.138.268 3.544.18 7.313.537 10.094 1.029 5.966 1.072 8.748 3.888 9.465 9.476.494 3.71.539 10.683.225 15.019Z"/></g></mask><g mask="url(#b)"><path fill="#A5B3C3" d="M-33-29h191V99H-33z"/></g><defs><clipPath id="a"><path fill="#fff" d="M0 0h123.5v78H0z"/></clipPath></defs></svg>