<svg width="137" height="70" fill="none" xmlns="http://www.w3.org/2000/svg"><mask id="c" style="mask-type:alpha" maskUnits="userSpaceOnUse" x="0" y="0" width="137" height="70"><g clip-path="url(#a)"><path fill-rule="evenodd" clip-rule="evenodd" d="M82.82 42.962c1.042 5.39-1.783 9.866-4.13 14.21-2.607 4.043-6.91 7.517-12.08 6.998-11.605-.174-22.947-1.956-33.466-5.13-.477-.13-.955-.435-1.216-.868-.218-.61.087-1.175.521-1.565 9.605-7.78 21.035-11.386 32.335-15.168 4.215-1.217 8.692-2.52 13.429-1.912 1.954.261 3.91 1.61 4.606 3.435Zm39.59-23.032c5.389 4.433 10.257 10.475 8.605 17.776-2.695 10.778-14.428 16.514-23.772 20.164-5.085 1.696-10.213 3.435-15.776 3.956-.348-.043-.913.043-1-.479l.13-.607c7.91-8.91 13.906-18.904 19.167-29.031 2.433-4.564 4.694-9.257 6.779-13.864.304-.348.609-.522.957-.652 1.954.172 3.346 1.694 4.91 2.737ZM46.571 8.456l-.173.651C34.968 22.101 27.45 37.182 20.323 52.175c-1.39 1.304-2.739-.435-3.999-1-6.346-4.173-12.082-10.91-10.43-18.905 2.65-10.43 13.385-15.992 22.339-19.772 5.301-2 10.822-3.607 16.645-4.52.609-.001 1.39-.088 1.694.478Zm56.718 2.085c.651.348 1.434.478 1.826 1.13.347.738-.348 1.216-.739 1.695-8.997 7.04-19.296 10.952-29.814 14.385-5.347 1.305-10.736 3.651-16.69 2.347a5.536 5.536 0 0 1-3.433-2.608c-1.478-4.085.522-8.344 2.26-11.907 2.303-4.477 6.39-9.736 12.038-9.822 12.169-.088 23.642 1.738 34.552 4.78Zm15.037.348c9.214 5.041 19.645 13.906 18.558 25.727-1.26 10.953-11.473 18.6-20.6 23.209-26.642 12.733-64.06 13.123-91.571 2C15.41 57.956 4.98 51.306 1.068 41.31c-2.998-8.213.651-16.775 6.78-22.468C20.669 7.196 37.01 3.199 53.83.893 72.085-1.324 91.293.632 107.634 6.24c3.651 1.348 7.258 2.826 10.692 4.65Z" fill="url(#b)"/></g></mask><g mask="url(#c)"><path fill="url(#d)" d="M-109.2-68.6h355.6v179.2h-355.6z"/></g><defs><linearGradient id="b" x1="68.481" y1="0" x2="68.481" y2="69.794" gradientUnits="userSpaceOnUse"><stop stop-color="#FF8A1E"/><stop offset="1" stop-color="#DA5A12"/></linearGradient><linearGradient id="d" x1="68.6" y1="-68.6" x2="68.6" y2="110.6" gradientUnits="userSpaceOnUse"><stop stop-color="#FF8A1E"/><stop offset="1" stop-color="#DA5A12"/></linearGradient><clipPath id="a"><path fill="#fff" d="M0 0h136.744v70H0z"/></clipPath></defs></svg>