<svg width="179" height="42" fill="none" xmlns="http://www.w3.org/2000/svg"><mask id="b" style="mask-type:alpha" maskUnits="userSpaceOnUse" x="0" y="0" width="179" height="42"><g clip-path="url(#a)"><path d="M103.564 37.18c0 .34.107.536.304.536.166 0 .303-.089.428-.179l55.637-36.11a5.357 5.357 0 0 1 3.213-.963h12.227c1.874 0 3.141 1.25 3.141 3.123v23.348c0 2.82-.624 4.462-3.123 5.961l-14.833 8.925a.902.902 0 0 1-.5.179c-.176 0-.357-.143-.357-.66V14.1c0-.321-.089-.535-.303-.535-.157 0-.305.08-.429.178l-40.661 26.418a5.455 5.455 0 0 1-3.124.946H88.231c-1.892 0-3.142-1.25-3.142-3.141V4.32c0-.25-.107-.482-.321-.482-.156 0-.304.082-.429.18L57.512 20.115c-.268.18-.339.304-.339.429 0 .107.054.214.232.41l19.17 19.153c.25.25.43.447.43.66 0 .18-.287.322-.626.322H59.065c-1.357 0-2.41-.197-3.142-.928L44.303 28.56a.472.472 0 0 0-.356-.179.706.706 0 0 0-.357.107L24.17 40.162c-1.179.714-1.982.91-3.142.91H3.16C1.25 41.09.001 39.823.001 37.95V15.047c0-2.838.625-4.462 3.142-5.961L18.065.126A.722.722 0 0 1 18.458 0c.232 0 .357.232.357.75v30.666c0 .321.07.463.303.463.158 0 .304-.089.447-.178L69.972 1.374a5.458 5.458 0 0 1 3.32-.928h27.131c1.875 0 3.142 1.25 3.142 3.124l-.018 33.61h.017Z" fill="#4D4775"/></g></mask><g mask="url(#b)"><path fill="#A5B3C3" d="M-60-62.4h304.8V91.2H-60z"/></g><defs><clipPath id="a"><path fill="#fff" d="M0 0h178.514v42H0z"/></clipPath></defs></svg>