<svg width="129" height="75" fill="none" xmlns="http://www.w3.org/2000/svg"><mask id="a" style="mask-type:alpha" maskUnits="userSpaceOnUse" x="0" y="0" width="129" height="75"><path d="M65.859 2c14.981 0 31.043 3.053 43.825 11.165 8.302 5.311 16.03 13.36 16.03 23.85 0 12.247-10.461 21.154-20.483 26.367C93.307 69.555 79.215 72 65.855 72c-14.978 0-31.007-3.018-43.794-11.161C13.76 55.527 6 47.479 6 37.014c0-12.305 10.433-21.18 20.483-26.396C38.443 4.448 52.503 2 65.859 2Zm-.127 3.722c-13.93 0-28.943 2.606-41.029 9.887-7.601 4.549-15.108 11.707-15.108 21.215 0 11.169 10.176 18.985 19.273 23.473 11.26 5.498 24.426 7.637 36.864 7.637 13.958 0 28.975-2.614 41.061-9.895 7.57-4.58 15.108-11.703 15.108-21.211 0-11.193-10.148-19.02-19.273-23.47-11.263-5.508-24.43-7.636-36.896-7.636ZM13.158 29.096l22.931-3.912 6.902-14.981 6.873 14.981 22.928 3.912-22.928 3.947-6.873 15.013-6.902-15.013-22.93-3.947Zm50.41 11.415 10.114-1.777 3.022-6.775 3.021 6.775 10.117 1.777-10.117 1.748-3.021 6.778-3.022-6.778-10.113-1.748Zm20.93-18.063L94.613 20.7l3.021-6.803 3.022 6.803 10.113 1.748-10.113 1.78-3.022 6.778-3.025-6.778-10.11-1.78ZM73.683 54.51l10.081-1.749 3.022-6.806 3.053 6.806 10.113 1.749-10.113 1.78-3.053 6.778-3.022-6.779-10.081-1.78Zm-31.07 2.448 10.112-1.748 3.053-6.814 3.018 6.814 10.117 1.748-10.117 1.78-3.018 6.778-3.053-6.778-10.113-1.78Zm50.856-16.726 10.082-1.784 3.021-6.775 3.054 6.775 10.113 1.784-10.113 1.748-3.057 6.768-3.022-6.772-10.078-1.744Z" fill="#4D4775"/></mask><g mask="url(#a)"><path fill="#A5B3C3" d="M-54-26h246v128H-54z"/></g></svg>