<svg width="96" height="96" fill="none" xmlns="http://www.w3.org/2000/svg"><mask id="b" style="mask-type:alpha" maskUnits="userSpaceOnUse" x="0" y="0" width="96" height="96"><g clip-path="url(#a)"><path d="M48.057 91.302c-23.784 0-43.269-19.58-43.269-43.364 0-5.35.955-10.412 2.77-15.187L32.87 83.66c.286.668.764 1.242 1.528 1.242s1.242-.574 1.528-1.242L47.58 57.585c.096-.287.287-.573.573-.573.287 0 .383.286.573.573L60.38 83.66c.286.668.764 1.242 1.528 1.242s1.241-.574 1.528-1.242l25.312-50.91c1.815 4.776 2.77 9.838 2.77 15.187-.191 23.783-19.677 43.364-43.46 43.364Zm0-53.202c-.287 0-.382-.287-.573-.574L33.92 6.961c4.394-1.623 9.17-2.483 14.137-2.483 4.967 0 9.742.86 14.136 2.483L48.63 37.527c-.191.382-.287.573-.573.573Zm-13.85 31.424c-.287 0-.382-.286-.573-.573l-21.969-44.32c3.916-6.017 9.17-11.08 15.57-14.613L43.09 45.263c.191.573.669.764 1.146.764h7.642c.573 0 .955-.095 1.241-.764l15.856-35.245c6.304 3.534 11.653 8.596 15.57 14.614l-22.16 44.32c-.096.286-.287.572-.574.572-.286 0-.382-.286-.573-.573l-8.31-18.912c-.286-.669-.668-.764-1.241-.764h-7.642c-.573 0-.955.096-1.242.764L34.78 68.951c-.095.287-.286.573-.573.573Zm13.85 26.172c26.458 0 47.758-21.3 47.758-47.758C95.815 21.48 74.515.18 48.057.18 21.599.18.299 21.48.299 47.938c0 26.458 21.3 47.758 47.758 47.758Z" fill="#4D4775"/></g></mask><g mask="url(#b)"><path fill="#A5B3C3" d="M-47.495-18.189h193.011v129.347H-47.495z"/></g><defs><clipPath id="a"><path fill="#fff" d="M0 0h96v96H0z"/></clipPath></defs></svg>