<svg width="150" height="150" fill="none" xmlns="http://www.w3.org/2000/svg"><g clip-path="url(#a)"><path d="M75 60.536c14.077 0 25.488-11.411 25.488-25.488S89.077 9.56 75 9.56 49.512 20.97 49.512 35.048 60.923 60.536 75 60.536Z" fill="url(#b)"/><path d="M126.562 60.536c8.9 0 16.114-7.214 16.114-16.113 0-8.9-7.214-16.113-16.114-16.113-8.899 0-16.113 7.214-16.113 16.113s7.214 16.113 16.113 16.113Z" fill="url(#c)"/><path d="M23.438 60.536c8.899 0 16.113-7.214 16.113-16.113 0-8.9-7.214-16.113-16.114-16.113-8.899 0-16.113 7.214-16.113 16.113s7.214 16.113 16.114 16.113Z" fill="url(#d)"/><path d="M39.313 75.006c-6.342-5.197-12.087-4.509-19.42-4.509C8.923 70.497 0 79.368 0 90.27v31.995c0 4.734 3.864 8.584 8.616 8.584 20.516 0 18.044.371 18.044-.885 0-22.672-2.685-39.298 12.653-54.958Z" fill="url(#e)"/><path d="M81.976 70.614c-12.81-1.068-23.944.013-33.548 7.94-16.071 12.873-12.978 30.206-12.978 51.41 0 5.61 4.564 10.26 10.26 10.26 61.84 0 64.301 1.994 67.968-6.126 1.203-2.747.873-1.874.873-28.146 0-20.867-18.068-35.338-32.575-35.338Z" fill="url(#f)"/><path d="M130.106 70.497c-7.374 0-13.086-.68-19.42 4.509 15.224 15.544 12.653 31.035 12.653 54.958 0 1.264-2.052.885 17.736.885 4.922 0 8.924-3.988 8.924-8.889V90.27c0-10.902-8.924-19.773-19.893-19.773Z" fill="url(#g)"/></g><defs><linearGradient id="b" x1="75" y1="9.56" x2="75" y2="60.536" gradientUnits="userSpaceOnUse"><stop stop-color="#FF8A1E"/><stop offset="1" stop-color="#DA5A12"/></linearGradient><linearGradient id="c" x1="126.562" y1="28.31" x2="126.563" y2="60.536" gradientUnits="userSpaceOnUse"><stop stop-color="#77E6FD"/><stop offset="1" stop-color="#26A4D9"/></linearGradient><linearGradient id="d" x1="23.438" y1="28.31" x2="23.438" y2="60.536" gradientUnits="userSpaceOnUse"><stop stop-color="#77E6FD"/><stop offset="1" stop-color="#26A4D9"/></linearGradient><linearGradient id="e" x1="19.657" y1="70.467" x2="19.657" y2="130.9" gradientUnits="userSpaceOnUse"><stop stop-color="#77E6FD"/><stop offset="1" stop-color="#26A4D9"/></linearGradient><linearGradient id="f" x1="74.902" y1="70.269" x2="74.902" y2="140.44" gradientUnits="userSpaceOnUse"><stop stop-color="#FF8A1E"/><stop offset="1" stop-color="#DA5A12"/></linearGradient><linearGradient id="g" x1="130.342" y1="70.468" x2="130.342" y2="130.902" gradientUnits="userSpaceOnUse"><stop stop-color="#77E6FD"/><stop offset="1" stop-color="#26A4D9"/></linearGradient><clipPath id="a"><path fill="#fff" d="M0 0h150v150H0z"/></clipPath></defs></svg>