<svg width="140" height="140" fill="none" xmlns="http://www.w3.org/2000/svg"><g clip-path="url(#a)"><path d="M115.117 74.102h8.203l-20.508-24.606-8.203 9.843v47.575h20.508V74.102Zm-69.726 32.812V59.339l-8.203-9.843L16.68 74.102h8.203v32.812H45.39Zm49.703 8.203L107.397 140H140l-20.779-24.883H95.094Zm-50.187 0H20.779L0 140h32.603l12.304-24.883Z" fill="url(#b)"/><path d="M41.29 24.61h12.304v82.304h32.812V24.609h12.305L70 0 41.29 24.61Zm12.79 90.507L41.774 140h56.45l-12.303-24.883H54.079Z" fill="url(#c)"/><path d="M115.117 74.102h8.203l-20.508-24.606-8.203 9.843v47.575h20.508V74.102Zm-20.023 41.015L107.397 140H140l-20.779-24.883H95.094Z" fill="url(#d)"/></g><defs><linearGradient id="b" x1="70" y1="24.609" x2="70" y2="140" gradientUnits="userSpaceOnUse"><stop stop-color="#77E6FD"/><stop offset="1" stop-color="#26A4D9"/></linearGradient><linearGradient id="c" x1="70" y1="0" x2="70" y2="140" gradientUnits="userSpaceOnUse"><stop stop-color="#FF8A1E"/><stop offset="1" stop-color="#DA5A12"/></linearGradient><linearGradient id="d" x1="117.305" y1="49.496" x2="117.305" y2="140" gradientUnits="userSpaceOnUse"><stop stop-color="#77E6FD"/><stop offset="1" stop-color="#26A4D9"/></linearGradient><clipPath id="a"><path fill="#fff" d="M0 0h140v140H0z"/></clipPath></defs></svg>