<svg width="150" height="150" fill="none" xmlns="http://www.w3.org/2000/svg"><path d="m149.394 59.3-26.661-45.428a4.394 4.394 0 0 0-5.987-1.582l-15.978 9.225-14.392-5.294a16.236 16.236 0 0 0-1.606-.495 16.06 16.06 0 0 0-12.012 1.664l-23.79 13.735c-5.255 3.034-7.055 9.753-4.022 15.008 3.034 5.254 9.753 7.055 15.008 4.02l26.105-15.072a8.789 8.789 0 0 1 8.79 0s52.595 30.377 52.764 30.481l.784-.645a4.397 4.397 0 0 0 .997-5.617Z" fill="url(#a)"/><path d="m142.712 72.863-52.256-30.17L64.35 57.765a19.658 19.658 0 0 1-15.006 1.976 19.645 19.645 0 0 1-12.008-9.214 19.644 19.644 0 0 1-1.975-15.006 19.623 19.623 0 0 1 6.945-10.479l-10.775-6.22a4.395 4.395 0 0 0-6.07 1.728L.523 67.044a4.394 4.394 0 0 0 1.675 5.883l2.284 1.319 4.01-6.945a18.737 18.737 0 0 1 16.183-9.34c3.276.003 6.493.866 9.33 2.504a18.73 18.73 0 0 1 4.337 3.443 18.621 18.621 0 0 1 6.389-1.134c3.276.003 6.493.866 9.33 2.504a18.554 18.554 0 0 1 9.052 12.937c1.805.417 3.539 1.1 5.143 2.026a18.553 18.553 0 0 1 9.053 12.936 18.75 18.75 0 0 1 5.144 2.025c8.918 5.15 11.985 16.595 6.836 25.513l-5.475 9.483 11.735 6.775c4.729 2.73 10.777 1.11 13.507-3.619 2.731-4.73 1.11-10.777-3.619-13.507l7.612 4.394c4.729 2.731 10.776 1.11 13.506-3.619 2.731-4.729 1.11-10.776-3.619-13.507l5.075 2.93c4.729 2.73 10.776 1.11 13.507-3.619 2.73-4.73 1.11-10.777-3.62-13.507l-5.074-2.93c4.729 2.73 10.776 1.11 13.507-3.62 2.73-4.728 1.11-10.775-3.619-13.506Z" fill="url(#b)"/><path d="M78.057 102.814c-4.729-2.73-10.776-1.11-13.506 3.619l2.93-5.074c2.73-4.729 1.11-10.776-3.62-13.506-4.729-2.73-10.776-1.11-13.506 3.619l2.93-5.075c2.73-4.729 1.11-10.776-3.62-13.507-4.729-2.73-10.776-1.11-13.507 3.62l-2.93 5.074c2.731-4.73 1.11-10.777-3.619-13.507-4.729-2.73-10.776-1.11-13.506 3.619L5.483 90.09c-2.73 4.729-1.11 10.776 3.619 13.506 4.729 2.731 10.776 1.11 13.506-3.62-2.73 4.73-1.11 10.777 3.62 13.508 4.729 2.73 10.776 1.11 13.506-3.62-2.73 4.729-1.11 10.777 3.62 13.507 4.729 2.731 10.776 1.11 13.506-3.619-2.73 4.729-1.11 10.776 3.62 13.506 4.728 2.731 10.776 1.111 13.506-3.619l7.69-13.32c2.731-4.728 1.11-10.775-3.619-13.506Z" fill="url(#c)"/><defs><linearGradient id="a" x1="96.736" y1="11.701" x2="96.736" y2="65.562" gradientUnits="userSpaceOnUse"><stop stop-color="#FF8A1E"/><stop offset="1" stop-color="#DA5A12"/></linearGradient><linearGradient id="b" x1="73.829" y1="18.232" x2="73.829" y2="138.299" gradientUnits="userSpaceOnUse"><stop stop-color="#77E6FD"/><stop offset="1" stop-color="#26A4D9"/></linearGradient><linearGradient id="c" x1="43.58" y1="66.751" x2="43.58" y2="134.586" gradientUnits="userSpaceOnUse"><stop stop-color="#FF8A1E"/><stop offset="1" stop-color="#DA5A12"/></linearGradient></defs></svg>