<svg width="155" height="155" fill="none" xmlns="http://www.w3.org/2000/svg"><path d="m66.927 92.064-16.41-2.513-7.389-15.732c-1.595-3.397-7.169-3.397-8.764 0L26.976 89.55l-16.41 2.513a4.843 4.843 0 0 0-2.733 8.169l12.013 12.316L17.004 130a4.843 4.843 0 0 0 7.124 5.018l14.621-8.079 14.622 8.079A4.844 4.844 0 0 0 60.495 130l-2.842-17.451 12.012-12.316a4.84 4.84 0 0 0-.35-7.088 4.843 4.843 0 0 0-2.388-1.081Zm77.5 0-16.41-2.513-7.389-15.732c-1.595-3.397-7.169-3.397-8.764 0l-7.388 15.732-16.41 2.513a4.843 4.843 0 0 0-2.733 8.169l12.013 12.316L94.504 130a4.843 4.843 0 0 0 7.124 5.018l14.621-8.079 14.622 8.079a4.845 4.845 0 0 0 7.124-5.018l-2.842-17.451 12.013-12.316a4.842 4.842 0 0 0-.351-7.088 4.842 4.842 0 0 0-2.388-1.081Z" fill="url(#a)"/><path d="m99.246 65.416-2.842-17.45 12.013-12.316a4.85 4.85 0 0 0 1.126-4.918 4.838 4.838 0 0 0-3.858-3.252l-16.41-2.512-7.389-15.733c-1.595-3.397-7.169-3.397-8.764 0l-7.388 15.733-16.41 2.512a4.844 4.844 0 0 0-2.733 8.17l12.013 12.316-2.842 17.45a4.844 4.844 0 0 0 7.124 5.019l14.615-8.08 14.621 8.08a4.844 4.844 0 0 0 7.124-5.019Z" fill="url(#b)"/><defs><linearGradient id="a" x1="77.499" y1="71.271" x2="77.499" y2="135.622" gradientUnits="userSpaceOnUse"><stop stop-color="#77E6FD"/><stop offset="1" stop-color="#26A4D9"/></linearGradient><linearGradient id="b" x1="77.504" y1="6.688" x2="77.504" y2="71.039" gradientUnits="userSpaceOnUse"><stop stop-color="#FF8A1E"/><stop offset="1" stop-color="#DA5A12"/></linearGradient></defs></svg>