<svg width="248" height="299" fill="none" xmlns="http://www.w3.org/2000/svg"><g filter="url(#a)"><path d="M130.25 193.75H74c-24.163 0-43.75-41.972-43.75-93.75S49.837 6.25 74 6.25h56.25" fill="#323D42"/><path d="M86.5 6.25c-24.163 0-43.75 41.972-43.75 93.75s19.587 93.75 43.75 93.75h31.25C93.588 193.75 74 151.778 74 100S93.588 6.25 117.75 6.25H86.5Z" fill="#51626B"/><path d="M130.25 193.75c-24.163 0-43.75-41.972-43.75-93.75s19.587-93.75 43.75-93.75C154.412 6.25 174 48.222 174 100s-19.588 93.75-43.75 93.75Z" fill="#65777F"/><path d="M130.25 168.75c13.807 0 25-30.78 25-68.75s-11.193-68.75-25-68.75-25 30.78-25 68.75 11.193 68.75 25 68.75Z" fill="#323D42"/><path d="M130.25 31.25c-13.806 0-25 30.781-25 68.75 0 26.463 5.441 49.419 13.409 60.913A10.354 10.354 0 0 0 124 162.5c13.806 0 25-30.781 25-68.75 0-26.463-5.441-49.419-13.409-60.913a10.355 10.355 0 0 0-5.341-1.587Z" fill="#43525B"/><path d="M106.531 190.625h-4.406c-9.225 0-17.84-7.3-24.75-19.375l13.972 3.494a83.008 83.008 0 0 1-4.044-7.457l-13.684-3.421a108.838 108.838 0 0 1-3.231-8.082L84 159.687a121.082 121.082 0 0 1-2.522-7.218l-13.415-3.841a148.533 148.533 0 0 1-2.297-8.891L79 143.516a160.472 160.472 0 0 1-1.544-6.938l-13.075-3.75a175.83 175.83 0 0 1-1.328-8.612l12.922 3.693a209.905 209.905 0 0 1-.84-6.74L62.302 117.5a181.468 181.468 0 0 1-.647-10l12.697 4.234a202.989 202.989 0 0 1-.287-6.684L61.5 100.875V100c0-2.5.06-4.969.153-7.422l12.394 3.54c.04-2.162.113-4.307.222-6.434l-12.272-3.506a163.8 163.8 0 0 1 .856-8.881l12.075 3.437c.206-2.128.456-4.218.728-6.29l-11.931-3.41a171.802 171.802 0 0 1 1.625-8.828l11.816 2.769c.39-2.075.809-4.122 1.25-6.122L66.753 56.12a137.514 137.514 0 0 1 2.913-9.919l11.25 3.212c.61-2.037 1.253-4.016 1.928-5.937l-11-3.144a93.527 93.527 0 0 1 4.862-10.415l10.49 3a81.876 81.876 0 0 1 2.954-5.657l-10.063-2.884c6.413-9.434 13.985-15 22.038-15h4.406A22.575 22.575 0 0 1 117.75 6.25H90.094a46.22 46.22 0 0 0-16.59 16.534l-14.376 4.11a85.597 85.597 0 0 0-3.919 7.619l13.966-3.991a103.004 103.004 0 0 0-3.678 8.39l-13.653 3.9a122.484 122.484 0 0 0-2.338 7.17l13.438-3.841a141.617 141.617 0 0 0-2.519 8.953l-13.25 3.784c-.512 2.25-.978 4.556-1.41 6.9l13.091-3.75a175.682 175.682 0 0 0-1.506 8.663l-12.938 3.697c-.3 2.235-.559 4.476-.778 6.721L56.5 77.45a198.67 198.67 0 0 0-.76 8.438l-12.712 3.64a198.86 198.86 0 0 0-.231 6.563l12.6-3.591a211.605 211.605 0 0 0-.147 7.5c0 .556.016 1.103.019 1.656l-12.447 3.556c.056 2.141.148 4.281.275 6.419l12.322-3.506c.114 3.037.295 6.028.54 8.972l-12.14 3.469c.223 2.123.476 4.216.76 6.281l12.005-3.438c.344 2.984.755 5.908 1.232 8.772l-11.8 3.369c.398 2.083.83 4.126 1.297 6.128l11.63-3.322a149.6 149.6 0 0 0 2.366 9.938l-11.518 2.687c.625 2.04 1.279 4.026 1.962 5.96l11.328-2.644a115.243 115.243 0 0 0 3.685 9.915l-10.888 2.722a88.697 88.697 0 0 0 2.966 5.7l10.587-2.647c5.657 11.275 12.719 19.557 20.653 23.75h27.666a22.564 22.564 0 0 1-11.219-3.112Z" fill="#323D42"/><path d="M161.25 118.5c31.066 0 56.25-25.184 56.25-56.25S192.316 6 161.25 6 105 31.184 105 62.25s25.184 56.25 56.25 56.25Z" fill="#DA6704"/><path d="M161.251 6a55.941 55.941 0 0 0-34.779 12.097 56.196 56.196 0 0 0 78.932 78.931 56.2 56.2 0 0 0 6.462-59.357A56.2 56.2 0 0 0 161.251 6Z" fill="#FB841D"/><path d="m127.769 76.987 7.222-4.17-5.064-2.3a3.54 3.54 0 0 1-1.757-4.684 3.536 3.536 0 0 1 4.684-1.757l9.668 4.393 11.414-6.59-11.414-6.59-9.669 4.393a3.536 3.536 0 1 1-2.926-6.44l5.063-2.301-7.222-4.17a3.538 3.538 0 0 1 3.537-6.126l7.222 4.17-.54-5.536a3.537 3.537 0 0 1 7.042-.686l1.03 10.57 11.414 6.59v-13.18l-8.639-6.177a3.538 3.538 0 0 1 4.114-5.754l4.524 3.234v-8.339a3.538 3.538 0 0 1 7.075 0v8.34l4.524-3.235A3.535 3.535 0 0 1 174.6 34.1a3.537 3.537 0 0 1-1.414 2.295l-8.638 6.177v13.18l11.413-6.59 1.03-10.57a3.528 3.528 0 0 1 1.273-2.39 3.533 3.533 0 0 1 2.59-.788 3.537 3.537 0 0 1 3.178 3.864l-.54 5.535 7.222-4.169a3.537 3.537 0 0 1 3.537 6.127l-7.221 4.169 5.063 2.3a3.539 3.539 0 0 1 1.734 4.673 3.536 3.536 0 0 1-4.66 1.768l-9.669-4.393-11.414 6.59 11.414 6.59 9.669-4.393a3.537 3.537 0 1 1 2.926 6.441l-5.063 2.3 7.222 4.17a3.536 3.536 0 0 1-3.538 6.127l-7.221-4.17.539 5.535a3.537 3.537 0 0 1-7.041.687l-1.03-10.57-11.413-6.59v13.18l8.638 6.177a3.538 3.538 0 0 1-4.115 5.754l-4.523-3.234v8.339a3.537 3.537 0 1 1-7.075 0v-8.34l-4.524 3.235a3.534 3.534 0 0 1-5.426-1.795 3.54 3.54 0 0 1 1.312-3.96l8.638-6.176v-13.18l-11.414 6.59-1.03 10.57a3.535 3.535 0 0 1-3.863 3.177 3.537 3.537 0 0 1-3.178-3.864l.539-5.535-7.221 4.17a3.547 3.547 0 0 1-2.685.354 3.533 3.533 0 0 1-2.147-1.649 3.535 3.535 0 0 1 .257-3.922 3.546 3.546 0 0 1 1.038-.91Z" fill="#fff" fill-opacity=".85"/></g><defs><filter id="a" x="-6" y="-5" width="260" height="310" filterUnits="userSpaceOnUse" color-interpolation-filters="sRGB"><feFlood flood-opacity="0" result="BackgroundImageFix"/><feColorMatrix in="SourceAlpha" values="0 0 0 0 0 0 0 0 0 0 0 0 0 0 0 0 0 0 127 0" result="hardAlpha"/><feOffset/><feColorMatrix values="0 0 0 0 0.0784314 0 0 0 0 0.0941176 0 0 0 0 0.105882 0 0 0 0.1 0"/><feBlend in2="BackgroundImageFix" result="effect1_dropShadow_453_21370"/><feColorMatrix in="SourceAlpha" values="0 0 0 0 0 0 0 0 0 0 0 0 0 0 0 0 0 0 127 0" result="hardAlpha"/><feOffset dy="5"/><feGaussianBlur stdDeviation="5"/><feColorMatrix values="0 0 0 0 0.0784314 0 0 0 0 0.0941176 0 0 0 0 0.105882 0 0 0 0.1 0"/><feBlend in2="effect1_dropShadow_453_21370" result="effect2_dropShadow_453_21370"/><feColorMatrix in="SourceAlpha" values="0 0 0 0 0 0 0 0 0 0 0 0 0 0 0 0 0 0 127 0" result="hardAlpha"/><feOffset dy="19"/><feGaussianBlur stdDeviation="9.5"/><feColorMatrix values="0 0 0 0 0.0784314 0 0 0 0 0.0941176 0 0 0 0 0.105882 0 0 0 0.08 0"/><feBlend in2="effect2_dropShadow_453_21370" result="effect3_dropShadow_453_21370"/><feColorMatrix in="SourceAlpha" values="0 0 0 0 0 0 0 0 0 0 0 0 0 0 0 0 0 0 127 0" result="hardAlpha"/><feOffset dy="42"/><feGaussianBlur stdDeviation="12.5"/><feColorMatrix values="0 0 0 0 0.0784314 0 0 0 0 0.0941176 0 0 0 0 0.105882 0 0 0 0.05 0"/><feBlend in2="effect3_dropShadow_453_21370" result="effect4_dropShadow_453_21370"/><feColorMatrix in="SourceAlpha" values="0 0 0 0 0 0 0 0 0 0 0 0 0 0 0 0 0 0 127 0" result="hardAlpha"/><feOffset dy="75"/><feGaussianBlur stdDeviation="15"/><feColorMatrix values="0 0 0 0 0.0784314 0 0 0 0 0.0941176 0 0 0 0 0.105882 0 0 0 0.01 0"/><feBlend in2="effect4_dropShadow_453_21370" result="effect5_dropShadow_453_21370"/><feBlend in="SourceGraphic" in2="effect5_dropShadow_453_21370" result="shape"/></filter></defs></svg>