<svg width="276" height="297" fill="none" xmlns="http://www.w3.org/2000/svg"><g filter="url(#a)"><path d="M132 109c0 11.046-8.954 20-20 20s-20-8.954-20-20 8.954-20 20-20 20 8.954 20 20Z" fill="url(#b)"/><path d="M111.723 28.79c-44.784 0-81.426 36.544-81.426 81.21s36.642 81.211 81.426 81.211 81.425-36.545 81.425-81.211c0-15.325-8.13-23.603-15.606-35.868-4.504-7.39-21.004-10.402-27.552-16.012-6.266-5.37-6.492-20.502-14.179-23.793-9.807-4.198-12.786-5.538-24.088-5.538Zm65.819 78.503-29.178 5.414-10.517-4.399-4.75-14.212 5.768-9.813 22.39-8.798c7.464 10.152 15.948 18.611 16.287 31.808Zm-43.088-30.116c.679-.677 1.018-1.692 1.018-2.707V48.415c4.904 1.893 2.574 13.511 6.898 16.479 4.949 3.397 8.622.937 12.424 5.452l-16.947 5.478c-.679.338-1.697.677-2.036 1.353l-3.053 3.384 1.696-3.384Zm-22.731-33.16c6.446 0 12.553 1.014 18.66 2.706l-3.732 28.762-7.464 8.46h-14.928l-7.464-8.46-3.732-28.762c6.106-1.692 12.213-2.707 18.66-2.707Zm10.856 62.599c-.678-1.692.34-3.722 2.036-4.06 1.696-.677 3.732.338 4.071 2.03.679 1.692-.339 3.722-2.035 4.06-1.697.339-3.393-.338-4.072-2.03Zm-.339 17.934c-1.357 1.015-3.393.677-4.75-.676-1.018-1.354-.678-3.384.679-4.399 1.357-1.016 3.393-.677 4.41.676 1.697 1.354 1.358 3.384-.339 4.399Zm-7.125-29.439c0 1.692-1.357 3.384-3.392 3.384-1.697 0-3.393-1.353-3.393-3.384 0-1.692 1.357-3.383 3.393-3.383 1.696.338 3.392 1.691 3.392 3.383Zm-14.588 25.04c1.017-1.353 3.053-1.692 4.41-.676 1.357 1.015 1.697 3.045.679 4.399-1.018 1.353-3.054 1.691-4.75.676-1.357-1.015-1.697-3.045-.339-4.399Zm-3.732-11.505c-1.697-.676-2.715-2.368-2.036-4.06.678-1.692 2.375-2.707 4.071-2.03 1.697.676 2.714 2.368 2.036 4.06-.679 1.692-2.375 2.369-4.071 2.03Zm-8.822-60.231v25.717c0 1.015.34 1.692.679 2.368l2.375 3.723-2.714-3.046c-.679-.677-1.357-1.353-2.375-1.692L60.83 68.041c7.125-8.798 16.625-15.565 27.142-19.626ZM57.779 72.102l26.464 12.52 5.767 9.813-4.75 14.211-10.517 4.399-29.517-5.752c1.018-12.858 5.428-25.04 12.553-35.191Zm-11.874 40.605 25.784 8.46c.679.338 1.697.338 2.715 0l4.41-1.016-3.732 1.692c-1.018.339-1.696 1.015-2.375 1.692l-16.285 22.333c-6.446-9.813-10.178-21.318-10.517-33.161Zm34.945 55.494-14.59-10.49c-2.713-2.368-4.749-5.075-7.124-7.782l21.035-22.333 11.196-2.369 11.875 8.798 1.018 11.505-14.928 26.732c-2.715-1.354-5.768-2.707-8.482-4.061Zm30.874 7.783c-6.107 0-11.875-1.015-17.303-2.369l16.285-22.333c.678-.677.678-1.692 1.018-2.368l.339-4.399.339 3.722c0 1.015.339 2.03 1.018 2.707l16.285 22.333c-5.767 1.692-11.874 2.707-17.981 2.707Zm44.445-17.257-12.214 8.797c-3.054 1.692-6.107 3.046-9.5 4.399l-14.928-26.732 1.018-11.504 11.874-8.798 11.196 2.368 20.696 21.995c-2.375 3.384-5.089 6.429-8.142 9.475Zm11.196-13.536-15.946-21.994c-.679-.677-1.357-1.354-2.036-1.692l-4.071-1.692 3.732.677a4.723 4.723 0 0 0 3.053 0l25.446-8.121c-.339 11.843-4.071 23.348-10.178 32.822Z" fill="#455B64"/><path d="M157.125 91.97c4.875 4.875 11.578 6.924 20.276 4.598l30.925 30.921c-2.327 8.642-.332 15.345 4.598 20.276 4.987 4.986 12.022 6.759 18.67 4.931.998-.222 1.717-.998 1.939-1.94.277-.941 0-1.994-.72-2.659l-7.424-7.423c-2.16-2.216-2.16-5.706 0-7.867 2.161-2.16 5.762-2.105 7.867 0l7.423 7.479c.665.665 1.718.942 2.66.72.941-.277 1.717-.997 1.939-1.994 1.828-6.593.055-13.684-4.931-18.67-4.875-4.875-11.634-6.925-20.276-4.598l-30.925-30.92.388-1.552c1.828-6.648-.111-13.85-4.987-18.725-4.985-4.986-12.021-6.814-18.724-4.986-.942.277-1.662 1.052-1.939 1.994a2.94 2.94 0 0 0 .72 2.66l7.478 7.423c2.161 2.216 2.161 5.706 0 7.866-2.16 2.106-5.705 2.106-7.866 0l-7.423-7.478a2.943 2.943 0 0 0-2.66-.72c-.941.277-1.717.997-1.994 1.994-1.773 6.592 0 13.684 4.986 18.67Z" fill="#6DE6FF"/><path d="M157.125 91.97c4.875 4.875 11.578 6.924 20.276 4.598l30.926 30.921c-2.327 8.642-.333 15.346 4.598 20.276 4.986 4.986 12.021 6.759 18.669 4.931a2.566 2.566 0 0 0 1.939-1.939c.277-.942 0-1.995-.72-2.659l-7.424-7.424c-2.16-2.216-2.16-5.706 0-7.867l-53.306-53.302c-2.161 2.105-5.706 2.105-7.867 0l-7.423-7.48a2.943 2.943 0 0 0-2.66-.72c-.941.278-1.717.998-1.994 1.995-1.773 6.592 0 13.684 4.986 18.67Z" fill="#25B3D0"/></g><defs><linearGradient id="b" x1="112" y1="89" x2="112" y2="129" gradientUnits="userSpaceOnUse"><stop stop-color="#FF8A1E"/><stop offset="1" stop-color="#DA5A12"/></linearGradient><filter id="a" x="-4" y="-5" width="280" height="330" filterUnits="userSpaceOnUse" color-interpolation-filters="sRGB"><feFlood flood-opacity="0" result="BackgroundImageFix"/><feColorMatrix in="SourceAlpha" values="0 0 0 0 0 0 0 0 0 0 0 0 0 0 0 0 0 0 127 0" result="hardAlpha"/><feOffset/><feColorMatrix values="0 0 0 0 0.0784314 0 0 0 0 0.0941176 0 0 0 0 0.105882 0 0 0 0.1 0"/><feBlend in2="BackgroundImageFix" result="effect1_dropShadow_453_21297"/><feColorMatrix in="SourceAlpha" values="0 0 0 0 0 0 0 0 0 0 0 0 0 0 0 0 0 0 127 0" result="hardAlpha"/><feOffset dy="5"/><feGaussianBlur stdDeviation="5"/><feColorMatrix values="0 0 0 0 0.0784314 0 0 0 0 0.0941176 0 0 0 0 0.105882 0 0 0 0.1 0"/><feBlend in2="effect1_dropShadow_453_21297" result="effect2_dropShadow_453_21297"/><feColorMatrix in="SourceAlpha" values="0 0 0 0 0 0 0 0 0 0 0 0 0 0 0 0 0 0 127 0" result="hardAlpha"/><feOffset dy="19"/><feGaussianBlur stdDeviation="9.5"/><feColorMatrix values="0 0 0 0 0.0784314 0 0 0 0 0.0941176 0 0 0 0 0.105882 0 0 0 0.08 0"/><feBlend in2="effect2_dropShadow_453_21297" result="effect3_dropShadow_453_21297"/><feColorMatrix in="SourceAlpha" values="0 0 0 0 0 0 0 0 0 0 0 0 0 0 0 0 0 0 127 0" result="hardAlpha"/><feOffset dy="42"/><feGaussianBlur stdDeviation="12.5"/><feColorMatrix values="0 0 0 0 0.0784314 0 0 0 0 0.0941176 0 0 0 0 0.105882 0 0 0 0.05 0"/><feBlend in2="effect3_dropShadow_453_21297" result="effect4_dropShadow_453_21297"/><feColorMatrix in="SourceAlpha" values="0 0 0 0 0 0 0 0 0 0 0 0 0 0 0 0 0 0 127 0" result="hardAlpha"/><feOffset dy="75"/><feGaussianBlur stdDeviation="15"/><feColorMatrix values="0 0 0 0 0.0784314 0 0 0 0 0.0941176 0 0 0 0 0.105882 0 0 0 0.01 0"/><feBlend in2="effect4_dropShadow_453_21297" result="effect5_dropShadow_453_21297"/><feBlend in="SourceGraphic" in2="effect5_dropShadow_453_21297" result="shape"/></filter></defs></svg>