<svg width="280" height="307" fill="none" xmlns="http://www.w3.org/2000/svg"><g clip-path="url(#a)" filter="url(#b)"><path d="M80.443 167.649v13.141l-23.738 11.572L30 180.79v-13.141a6.36 6.36 0 0 1 6.358-6.358h37.727a6.36 6.36 0 0 1 6.358 6.358Z" fill="#455B64"/><path d="M80.443 180.79v13.988a6.361 6.361 0 0 1-6.358 6.359H36.358A6.361 6.361 0 0 1 30 194.778V180.79h50.443Z" fill="#36474F"/><path d="M247.033 167.649v13.141l-69.095 10.173-83.082-10.173v-13.141a6.36 6.36 0 0 1 6.358-6.358h139.46a6.36 6.36 0 0 1 6.359 6.358Z" fill="#455B64"/><path d="M247.033 180.79v13.988a6.362 6.362 0 0 1-6.359 6.359h-139.46a6.361 6.361 0 0 1-6.358-6.359V180.79h152.177Z" fill="#36474F"/><path d="M94.008 140.52v10.174a6.36 6.36 0 0 1-6.359 6.358 6.36 6.36 0 0 1-6.358-6.358V140.52a6.36 6.36 0 0 1 6.358-6.358 6.36 6.36 0 0 1 6.359 6.358Z" fill="url(#c)"/><path d="M50.348 150.27h-6.783a6.359 6.359 0 0 1 0-12.717h6.783a6.359 6.359 0 0 1 0 12.717Zm3.39-23.738a6.333 6.333 0 0 1-4.495-1.863l-3.391-3.391a6.358 6.358 0 1 1 8.992-8.992l3.391 3.391a6.358 6.358 0 0 1-4.496 10.855Zm77.997 23.738h-6.782a6.359 6.359 0 1 1 0-12.717h6.782a6.359 6.359 0 0 1 0 12.717Zm-10.173-23.738a6.328 6.328 0 0 1-4.496-1.863 6.358 6.358 0 0 1 0-8.992l3.391-3.391a6.358 6.358 0 0 1 8.992 8.992l-3.391 3.391a6.326 6.326 0 0 1-4.496 1.863Z" fill="url(#d)"/><path d="M222.872 25.222v16.955a6.36 6.36 0 0 1-6.358 6.359h-20.347a6.36 6.36 0 0 1-6.358-6.359V25.222a6.36 6.36 0 0 1 6.358-6.359h20.347a6.36 6.36 0 0 1 6.358 6.359Z" fill="url(#e)"/><path d="M138.093 62.524a6.361 6.361 0 0 1-6.359 6.358h-31.368a6.366 6.366 0 0 0-6.358 6.359v14.412a6.36 6.36 0 0 1-6.359 6.359 6.36 6.36 0 0 1-6.358-6.359V75.241c0-5.087 2.005-9.72 5.265-13.14 3.476-3.655 8.38-5.935 13.81-5.935h31.368a6.357 6.357 0 0 1 6.342 5.934c.012.14.017.28.017.424Z" fill="#36474F"/><path d="M250 44.72V62.1l-50.655 11.445L148.689 62.1V44.72a6.361 6.361 0 0 1 6.359-6.358h88.593A6.361 6.361 0 0 1 250 44.721Z" fill="#455B64"/><path d="M250 62.1v16.532a6.361 6.361 0 0 1-6.359 6.358h-88.593a6.361 6.361 0 0 1-6.359-6.358V62.1H250Z" fill="#36474F"/><path d="m110.773 91.196-6.782 27.129a6.357 6.357 0 0 1-6.168 4.816H77.476a6.357 6.357 0 0 1-6.167-4.816l-6.782-27.129a6.35 6.35 0 0 1 1.157-5.455 6.355 6.355 0 0 1 5.01-2.446h33.911a6.355 6.355 0 0 1 6.22 5.04 6.343 6.343 0 0 1-.052 2.861Z" fill="#455B64"/><path d="M158.439 38.786V62.1l-16.532 16.956L125.375 62.1V38.786a6.36 6.36 0 0 1 6.358-6.358h20.347a6.361 6.361 0 0 1 6.359 6.358Z" fill="#54707A"/><path d="M158.439 62.1v24.162a6.361 6.361 0 0 1-6.359 6.358h-20.347a6.36 6.36 0 0 1-6.358-6.358V62.1h33.064Z" fill="#455B64"/></g><defs><linearGradient id="c" x1="87.649" y1="134.162" x2="87.649" y2="157.052" gradientUnits="userSpaceOnUse"><stop stop-color="#FF8A1E"/><stop offset="1" stop-color="#DA5A12"/></linearGradient><linearGradient id="d" x1="87.65" y1="110.424" x2="87.65" y2="150.27" gradientUnits="userSpaceOnUse"><stop stop-color="#77E6FD"/><stop offset="1" stop-color="#26A4D9"/></linearGradient><linearGradient id="e" x1="206.34" y1="18.863" x2="206.34" y2="48.536" gradientUnits="userSpaceOnUse"><stop stop-color="#FF8A1E"/><stop offset="1" stop-color="#DA5A12"/></linearGradient><clipPath id="a"><path fill="#fff" transform="translate(30)" d="M0 0h220v220H0z"/></clipPath><filter id="b" x="0" y="-5" width="280" height="330" filterUnits="userSpaceOnUse" color-interpolation-filters="sRGB"><feFlood flood-opacity="0" result="BackgroundImageFix"/><feColorMatrix in="SourceAlpha" values="0 0 0 0 0 0 0 0 0 0 0 0 0 0 0 0 0 0 127 0" result="hardAlpha"/><feOffset/><feColorMatrix values="0 0 0 0 0.0784314 0 0 0 0 0.0941176 0 0 0 0 0.105882 0 0 0 0.1 0"/><feBlend in2="BackgroundImageFix" result="effect1_dropShadow_453_21310"/><feColorMatrix in="SourceAlpha" values="0 0 0 0 0 0 0 0 0 0 0 0 0 0 0 0 0 0 127 0" result="hardAlpha"/><feOffset dy="5"/><feGaussianBlur stdDeviation="5"/><feColorMatrix values="0 0 0 0 0.0784314 0 0 0 0 0.0941176 0 0 0 0 0.105882 0 0 0 0.1 0"/><feBlend in2="effect1_dropShadow_453_21310" result="effect2_dropShadow_453_21310"/><feColorMatrix in="SourceAlpha" values="0 0 0 0 0 0 0 0 0 0 0 0 0 0 0 0 0 0 127 0" result="hardAlpha"/><feOffset dy="19"/><feGaussianBlur stdDeviation="9.5"/><feColorMatrix values="0 0 0 0 0.0784314 0 0 0 0 0.0941176 0 0 0 0 0.105882 0 0 0 0.08 0"/><feBlend in2="effect2_dropShadow_453_21310" result="effect3_dropShadow_453_21310"/><feColorMatrix in="SourceAlpha" values="0 0 0 0 0 0 0 0 0 0 0 0 0 0 0 0 0 0 127 0" result="hardAlpha"/><feOffset dy="42"/><feGaussianBlur stdDeviation="12.5"/><feColorMatrix values="0 0 0 0 0.0784314 0 0 0 0 0.0941176 0 0 0 0 0.105882 0 0 0 0.05 0"/><feBlend in2="effect3_dropShadow_453_21310" result="effect4_dropShadow_453_21310"/><feColorMatrix in="SourceAlpha" values="0 0 0 0 0 0 0 0 0 0 0 0 0 0 0 0 0 0 127 0" result="hardAlpha"/><feOffset dy="75"/><feGaussianBlur stdDeviation="15"/><feColorMatrix values="0 0 0 0 0.0784314 0 0 0 0 0.0941176 0 0 0 0 0.105882 0 0 0 0.01 0"/><feBlend in2="effect4_dropShadow_453_21310" result="effect5_dropShadow_453_21310"/><feBlend in="SourceGraphic" in2="effect5_dropShadow_453_21310" result="shape"/></filter></defs></svg>