<svg width="248" height="299" fill="none" xmlns="http://www.w3.org/2000/svg"><g filter="url(#a)"><path d="M130.25 193.547H74c-24.163 0-43.75-41.975-43.75-93.75S49.837 6.047 74 6.047h56.25" fill="#323D42"/><path d="M86.5 6.047c-24.163 0-43.75 41.972-43.75 93.75s19.587 93.75 43.75 93.75h31.25c-24.162 0-43.75-41.975-43.75-93.75s19.588-93.75 43.75-93.75H86.5Z" fill="#51626B"/><path d="M130.25 193.547c-24.163 0-43.75-41.975-43.75-93.75s19.587-93.75 43.75-93.75c24.162 0 43.75 41.972 43.75 93.75s-19.588 93.75-43.75 93.75Z" fill="#65777F"/><path d="M130.25 168.547c13.807 0 25-30.781 25-68.75 0-37.97-11.193-68.75-25-68.75s-25 30.78-25 68.75c0 37.969 11.193 68.75 25 68.75Z" fill="#323D42"/><path d="M130.25 31.047c-13.806 0-25 30.781-25 68.75 0 26.462 5.441 49.419 13.409 60.912a10.346 10.346 0 0 0 5.341 1.588c13.806 0 25-30.781 25-68.75 0-26.463-5.441-49.419-13.409-60.913a10.314 10.314 0 0 0-5.341-1.587Z" fill="#43525B"/><path d="M106.531 190.422h-4.406c-9.225 0-17.84-7.3-24.75-19.375l13.972 3.494a82.956 82.956 0 0 1-4.044-7.454L73.62 163.65a108.815 108.815 0 0 1-3.231-8.081L84 159.478a120.724 120.724 0 0 1-2.522-7.222l-13.415-3.819a149.157 149.157 0 0 1-2.297-8.89L79 143.312a159.341 159.341 0 0 1-1.544-6.94l-13.075-3.75a175.75 175.75 0 0 1-1.328-8.613l12.922 3.691a209.777 209.777 0 0 1-.84-6.738l-12.832-3.65a181.405 181.405 0 0 1-.647-10l12.697 4.235a202.799 202.799 0 0 1-.287-6.688L61.5 100.672v-.875c0-2.5.06-4.969.153-7.422l12.394 3.54c.04-2.166.113-4.31.222-6.434l-12.272-3.506c.208-3.01.494-5.97.856-8.881l12.075 3.437c.206-2.128.456-4.219.728-6.29l-11.931-3.397a171.762 171.762 0 0 1 1.625-8.828l11.816 2.768a194.31 194.31 0 0 1 1.25-6.122l-11.647-2.724a137.481 137.481 0 0 1 2.912-9.92l11.25 3.21c.625-2.034 1.25-4.022 1.928-5.937l-11-3.144a93.51 93.51 0 0 1 4.863-10.416l10.49 2.997a82.506 82.506 0 0 1 2.954-5.653l-10.07-2.878c6.404-9.46 13.976-15.025 22.029-15.025h4.406a22.575 22.575 0 0 1 11.219-3.125H90.094a46.194 46.194 0 0 0-16.59 16.534l-14.379 4.107a86.72 86.72 0 0 0-3.919 7.618l13.966-3.993a103.054 103.054 0 0 0-3.678 8.39l-13.65 3.906a122.893 122.893 0 0 0-2.338 7.166l13.438-3.837a142.657 142.657 0 0 0-2.519 8.95l-13.25 3.787c-.518 2.29-.988 4.59-1.41 6.9l13.091-3.75a175.36 175.36 0 0 0-1.506 8.666l-12.938 3.697c-.3 2.235-.559 4.476-.778 6.721L56.5 77.244c-.31 2.773-.563 5.585-.76 8.437l-12.712 3.644c-.112 2.167-.19 4.354-.231 6.563l12.6-3.6a213.065 213.065 0 0 0-.147 7.5c0 .556.016 1.103.019 1.656L42.822 105c.056 2.141.148 4.281.275 6.419l12.322-3.519c.114 3.035.295 6.026.54 8.972l-12.14 3.469c.223 2.123.476 4.216.76 6.281l12.005-3.438c.344 2.988.755 5.913 1.232 8.775l-11.8 3.388c.398 2.083.83 4.126 1.297 6.128l11.63-3.322a149.6 149.6 0 0 0 2.366 9.938l-11.518 2.684a145.235 145.235 0 0 0 1.962 5.962l11.328-2.643a115.243 115.243 0 0 0 3.685 9.915l-10.888 2.722a82.304 82.304 0 0 0 2.966 5.7l10.587-2.647c5.657 11.275 12.719 19.557 20.653 23.75h27.666a22.574 22.574 0 0 1-11.219-3.112Z" fill="#323D42"/><path d="m142.884 55.384-12.009-16.009 5-3.75 11.781 15.712-4.772 4.047Z" fill="#FB841D"/><path d="M130.25 40.625a9.375 9.375 0 0 0 9.375-9.375 9.375 9.375 0 0 0-9.375-9.375 9.375 9.375 0 0 0-9.375 9.375 9.375 9.375 0 0 0 9.375 9.375Z" fill="#DA6704"/><path d="M130.25 21.875a9.263 9.263 0 0 0-4.856 1.394A9.263 9.263 0 0 0 124 28.125a9.376 9.376 0 0 0 9.375 9.375 9.263 9.263 0 0 0 4.856-1.394 9.263 9.263 0 0 0 1.394-4.856 9.376 9.376 0 0 0-9.375-9.375Z" fill="#FB841D"/><path d="m150.682 86.056 26.443 60.819L217.75 125l-7.031-21.094-60.037-17.85Z" fill="#2B93A9"/><path d="M142.75 50h25l50 46.875L189.625 125l-50-50 3.125-25Z" fill="#25B3D0"/><path d="m142.75 50-2.084 16.666 48.959 48.959 23.288-23.287L167.75 50h-25Z" fill="#6DE6FF"/><path d="M158.375 71.875a6.25 6.25 0 1 0 0-12.5 6.25 6.25 0 0 0 0 12.5Z" fill="#25B3D0"/></g><defs><filter id="a" x="-6" y="-5" width="260" height="310" filterUnits="userSpaceOnUse" color-interpolation-filters="sRGB"><feFlood flood-opacity="0" result="BackgroundImageFix"/><feColorMatrix in="SourceAlpha" values="0 0 0 0 0 0 0 0 0 0 0 0 0 0 0 0 0 0 127 0" result="hardAlpha"/><feOffset/><feColorMatrix values="0 0 0 0 0.0784314 0 0 0 0 0.0941176 0 0 0 0 0.105882 0 0 0 0.1 0"/><feBlend in2="BackgroundImageFix" result="effect1_dropShadow_453_21348"/><feColorMatrix in="SourceAlpha" values="0 0 0 0 0 0 0 0 0 0 0 0 0 0 0 0 0 0 127 0" result="hardAlpha"/><feOffset dy="5"/><feGaussianBlur stdDeviation="5"/><feColorMatrix values="0 0 0 0 0.0784314 0 0 0 0 0.0941176 0 0 0 0 0.105882 0 0 0 0.1 0"/><feBlend in2="effect1_dropShadow_453_21348" result="effect2_dropShadow_453_21348"/><feColorMatrix in="SourceAlpha" values="0 0 0 0 0 0 0 0 0 0 0 0 0 0 0 0 0 0 127 0" result="hardAlpha"/><feOffset dy="19"/><feGaussianBlur stdDeviation="9.5"/><feColorMatrix values="0 0 0 0 0.0784314 0 0 0 0 0.0941176 0 0 0 0 0.105882 0 0 0 0.08 0"/><feBlend in2="effect2_dropShadow_453_21348" result="effect3_dropShadow_453_21348"/><feColorMatrix in="SourceAlpha" values="0 0 0 0 0 0 0 0 0 0 0 0 0 0 0 0 0 0 127 0" result="hardAlpha"/><feOffset dy="42"/><feGaussianBlur stdDeviation="12.5"/><feColorMatrix values="0 0 0 0 0.0784314 0 0 0 0 0.0941176 0 0 0 0 0.105882 0 0 0 0.05 0"/><feBlend in2="effect3_dropShadow_453_21348" result="effect4_dropShadow_453_21348"/><feColorMatrix in="SourceAlpha" values="0 0 0 0 0 0 0 0 0 0 0 0 0 0 0 0 0 0 127 0" result="hardAlpha"/><feOffset dy="75"/><feGaussianBlur stdDeviation="15"/><feColorMatrix values="0 0 0 0 0.0784314 0 0 0 0 0.0941176 0 0 0 0 0.105882 0 0 0 0.01 0"/><feBlend in2="effect4_dropShadow_453_21348" result="effect5_dropShadow_453_21348"/><feBlend in="SourceGraphic" in2="effect5_dropShadow_453_21348" result="shape"/></filter></defs></svg>