<svg width="256" height="310" fill="none" xmlns="http://www.w3.org/2000/svg"><g clip-path="url(#a)" filter="url(#b)"><path d="M30.195 107.196c0-53.945 43.674-97.69 97.592-97.804 53.777-.115 97.322 42.753 98.009 96.526.367 28.699-11.63 54.602-30.999 72.719a4.702 4.702 0 0 1-6.127.246c-16.673-13.203-37.751-21.086-60.67-21.086-22.919 0-43.996 7.883-60.669 21.086a4.713 4.713 0 0 1-6.145-.262c-19.072-17.847-30.99-43.245-30.99-71.425Z" fill="#323D42"/><path d="M194.969 78.606v99.869C177.47 194.923 153.911 205 127.999 205c-25.911 0-49.47-10.077-66.97-26.525V78.606a25.758 25.758 0 0 1 16.274-23.948l21.66-8.579a8.584 8.584 0 0 0 5.425-7.982V18.174h47.223v19.923a8.587 8.587 0 0 0 5.424 7.983l21.661 8.579a25.756 25.756 0 0 1 16.273 23.947Z" fill="#91CEFB"/><path d="M194.97 78.606v99.869C177.47 194.923 153.912 205 128 205c-19.383 0-37.45-5.639-52.648-15.365V85.389a26.854 26.854 0 0 1 16.966-24.967l22.582-8.944a8.945 8.945 0 0 0 5.656-8.322V18.174h31.055v19.923a8.585 8.585 0 0 0 5.425 7.983l21.661 8.579a25.757 25.757 0 0 1 16.273 23.947Z" fill="#BBE0FB"/><rect x="102" y="150.221" width="53" height="4" rx="2" fill="#528ED7"/><rect x="111" y="164" width="35" height="4" rx="2" fill="#528ED7"/><rect x="116" y="92" width="25" height="4" rx="2" fill="#528ED7"/><path d="m82 128.25 5.776-13.49h2.736l5.776 13.49h-3.154l-1.197-2.85h-5.586l-1.197 2.85H82Zm7.144-9.519-1.71 4.047h3.401l-1.691-4.047Zm8.303 9.519v-9.5h2.869v3.496h3.572v-3.496h2.869v9.5h-2.869v-3.515h-3.572v3.515h-2.869Zm13.362 0v-7.011h-2.527v-2.489h8.113v2.489h-2.717v7.011h-2.869Zm9.669 0h-2.565v-9.5h2.869v5.244l3.952-5.244h2.565v9.5h-2.85v-5.225l-3.971 5.225Zm16.78 3.971h-2.869v-3.762h-.228c-1.571 0-2.812-.481-3.724-1.444-.899-.963-1.349-2.134-1.349-3.515 0-1.381.45-2.552 1.349-3.515.912-.963 2.153-1.444 3.724-1.444h.228V114h2.869v4.541h.228c1.571 0 2.806.481 3.705 1.444.912.963 1.368 2.134 1.368 3.515 0 1.381-.456 2.552-1.368 3.515-.899.963-2.134 1.444-3.705 1.444h-.228v3.762Zm.228-11.058h-.228v4.674h.228c.659 0 1.184-.222 1.577-.665.405-.456.608-1.013.608-1.672s-.203-1.21-.608-1.653c-.393-.456-.918-.684-1.577-.684Zm-3.097 4.674v-4.674h-.228c-.659 0-1.191.228-1.596.684-.393.443-.589.994-.589 1.653s.196 1.216.589 1.672c.405.443.937.665 1.596.665h.228Zm12.833 6.384h-2.869V118.75h2.869v.95c.203-.304.539-.57 1.007-.798a3.4 3.4 0 0 1 1.577-.361c1.229 0 2.268.488 3.116 1.463.862.975 1.292 2.141 1.292 3.496s-.43 2.521-1.292 3.496c-.848.975-1.887 1.463-3.116 1.463a3.56 3.56 0 0 1-1.577-.342c-.468-.241-.804-.513-1.007-.817v4.921Zm.361-7.03c.406.443.931.665 1.577.665.646 0 1.166-.222 1.558-.665.406-.443.608-1.007.608-1.691 0-.684-.202-1.248-.608-1.691-.392-.443-.912-.665-1.558-.665s-1.171.222-1.577.665c-.392.443-.589 1.007-.589 1.691 0 .684.197 1.248.589 1.691Zm10.988 3.059h-2.565v-9.5h2.869v5.244l3.952-5.244h2.565v9.5h-2.85v-5.225l-3.971 5.225Zm12.923.209c-1.102 0-2.078-.272-2.926-.817-.849-.545-1.381-1.374-1.596-2.489h2.964c.088.317.266.564.532.741.278.165.614.241 1.007.228.848-.013 1.273-.323 1.273-.931 0-.57-.349-.855-1.045-.855h-1.159v-1.9h1.045c.291 0 .519-.07.684-.209a.762.762 0 0 0 .266-.608.794.794 0 0 0-.285-.627c-.178-.165-.456-.247-.836-.247-.71 0-1.153.291-1.33.874H167.2c.215-1.077.722-1.856 1.52-2.337.81-.494 1.741-.741 2.793-.741 1.241 0 2.172.304 2.793.912.633.595.95 1.241.95 1.938 0 .811-.273 1.425-.817 1.843.798.494 1.197 1.222 1.197 2.185 0 .798-.361 1.507-1.083 2.128-.722.608-1.742.912-3.059.912Z" fill="#528ED7"/><path d="M85.684 32.944a3.992 3.992 0 1 1-7.984 0 3.992 3.992 0 0 1 7.984 0Zm-39.92 67.864a3.992 3.992 0 1 0 0 7.985 3.992 3.992 0 0 0 0-7.985Zm167.664-23.952a3.992 3.992 0 1 0 0 7.984 3.992 3.992 0 0 0 0-7.984Z" fill="url(#c)"/><path d="m68.547 143.634-2.168 2.167 2.168 2.167a3.993 3.993 0 0 1-5.646 5.646l-2.167-2.167-2.167 2.167a3.978 3.978 0 0 1-2.823 1.17 3.993 3.993 0 0 1-2.823-6.816l2.167-2.167-2.167-2.167a3.993 3.993 0 0 1 5.646-5.646l2.167 2.167 2.167-2.167a3.993 3.993 0 0 1 5.645 5.646ZM173.508 36.806a3.992 3.992 0 1 0 0 7.985 3.992 3.992 0 0 0 0-7.985ZM69.716 56.536a3.992 3.992 0 1 0 0 7.985 3.992 3.992 0 0 0 0-7.985Z" fill="#E3F0FB"/><path d="M211.285 143.698a3.992 3.992 0 0 1-4.889 2.823l-4.292-1.151 1.15 4.293a3.994 3.994 0 0 1-7.024 3.464 3.98 3.98 0 0 1-.688-1.398l-1.15-4.292-3.143 3.142a3.991 3.991 0 1 1-5.645-5.645l3.142-3.143-4.293-1.15a3.985 3.985 0 0 1-2.925-3.335 3.992 3.992 0 0 1 4.992-4.377l4.292 1.15-1.15-4.293a3.993 3.993 0 0 1 7.712-2.066l1.15 4.293 3.143-3.143a3.991 3.991 0 1 1 5.645 5.646l-3.142 3.142 4.292 1.15a3.992 3.992 0 0 1 2.823 4.89Z" fill="#FFF5F5"/><path d="M151.953 36.936h-47.904a5.989 5.989 0 0 1-5.989-5.988v-19.96A5.989 5.989 0 0 1 104.05 5h47.904a5.988 5.988 0 0 1 5.988 5.988v19.96a5.988 5.988 0 0 1-5.988 5.988Z" fill="#DA6704"/><path d="M151.952 5h-36.327a5.988 5.988 0 0 0-5.988 5.988v19.96a5.988 5.988 0 0 0 5.988 5.988h36.327a5.988 5.988 0 0 0 5.988-5.988v-19.96A5.988 5.988 0 0 0 151.952 5Zm-30.339 19.96a3.992 3.992 0 1 1-7.984 0v-7.984a3.992 3.992 0 1 1 7.984 0v7.984Zm13.972 0a3.992 3.992 0 1 1-7.984 0v-7.984a3.992 3.992 0 1 1 7.984 0v7.984Zm13.972 0a3.992 3.992 0 1 1-7.984 0v-7.984a3.992 3.992 0 1 1 7.984 0v7.984Z" fill="#FB841D"/></g><defs><linearGradient id="c" x1="129.596" y1="28.952" x2="129.596" y2="108.792" gradientUnits="userSpaceOnUse"><stop stop-color="#77E6FD"/><stop offset="1" stop-color="#26A4D9"/></linearGradient><clipPath id="a"><path fill="#fff" transform="translate(28 5)" d="M0 0h200v200H0z"/></clipPath><filter id="b" x="-2" y="0" width="260" height="310" filterUnits="userSpaceOnUse" color-interpolation-filters="sRGB"><feFlood flood-opacity="0" result="BackgroundImageFix"/><feColorMatrix in="SourceAlpha" values="0 0 0 0 0 0 0 0 0 0 0 0 0 0 0 0 0 0 127 0" result="hardAlpha"/><feOffset/><feColorMatrix values="0 0 0 0 0.0784314 0 0 0 0 0.0941176 0 0 0 0 0.105882 0 0 0 0.1 0"/><feBlend in2="BackgroundImageFix" result="effect1_dropShadow_453_21257"/><feColorMatrix in="SourceAlpha" values="0 0 0 0 0 0 0 0 0 0 0 0 0 0 0 0 0 0 127 0" result="hardAlpha"/><feOffset dy="5"/><feGaussianBlur stdDeviation="5"/><feColorMatrix values="0 0 0 0 0.0784314 0 0 0 0 0.0941176 0 0 0 0 0.105882 0 0 0 0.1 0"/><feBlend in2="effect1_dropShadow_453_21257" result="effect2_dropShadow_453_21257"/><feColorMatrix in="SourceAlpha" values="0 0 0 0 0 0 0 0 0 0 0 0 0 0 0 0 0 0 127 0" result="hardAlpha"/><feOffset dy="19"/><feGaussianBlur stdDeviation="9.5"/><feColorMatrix values="0 0 0 0 0.0784314 0 0 0 0 0.0941176 0 0 0 0 0.105882 0 0 0 0.08 0"/><feBlend in2="effect2_dropShadow_453_21257" result="effect3_dropShadow_453_21257"/><feColorMatrix in="SourceAlpha" values="0 0 0 0 0 0 0 0 0 0 0 0 0 0 0 0 0 0 127 0" result="hardAlpha"/><feOffset dy="42"/><feGaussianBlur stdDeviation="12.5"/><feColorMatrix values="0 0 0 0 0.0784314 0 0 0 0 0.0941176 0 0 0 0 0.105882 0 0 0 0.05 0"/><feBlend in2="effect3_dropShadow_453_21257" result="effect4_dropShadow_453_21257"/><feColorMatrix in="SourceAlpha" values="0 0 0 0 0 0 0 0 0 0 0 0 0 0 0 0 0 0 127 0" result="hardAlpha"/><feOffset dy="75"/><feGaussianBlur stdDeviation="15"/><feColorMatrix values="0 0 0 0 0.0784314 0 0 0 0 0.0941176 0 0 0 0 0.105882 0 0 0 0.01 0"/><feBlend in2="effect4_dropShadow_453_21257" result="effect5_dropShadow_453_21257"/><feBlend in="SourceGraphic" in2="effect5_dropShadow_453_21257" result="shape"/></filter></defs></svg>