<svg width="252" height="310" fill="none" xmlns="http://www.w3.org/2000/svg"><g filter="url(#a)"><path d="M216.616 136.253c0-5.403-3.265-15.624-15.624-15.624h-13.559c-6.821-15.106-18.887-21.28-19.418-21.543a3.127 3.127 0 0 0-.409-.168c-.403-.135-10.218-3.285-41.611-3.285-31.392 0-41.21 3.15-41.61 3.285-.14.046-.277.103-.41.168-.53.266-12.596 6.437-19.417 21.543h-13.56c-12.358 0-15.623 10.221-15.617 15.846l3.118 43.526v15.624c0 5.169 4.206 9.375 9.375 9.375h18.75c5.168 0 9.374-4.206 9.374-9.375v-3.124h99.995v3.124c0 5.169 4.206 9.375 9.375 9.375h18.749c5.168 0 9.374-4.206 9.374-9.375l-.006-15.402 3.131-43.97Z" fill="#2A3438"/><path d="M200.992 120.629h-13.559c-6.821-15.106-18.887-21.28-19.418-21.543a3.127 3.127 0 0 0-.409-.168c-.403-.135-10.218-3.285-41.611-3.285-31.392 0-41.21 3.15-41.61 3.285-.14.046-.277.103-.41.168-.53.266-12.596 6.437-19.417 21.543h-13.56c-12.358 0-15.623 10.221-15.617 15.846l3.118 43.526c0 8.047 7.39 12.5 12.5 12.5h149.993c5.109 0 12.499-4.453 12.493-12.278l3.131-43.97c0-5.406-3.265-15.624-15.624-15.624Z" fill="#51626B"/><path d="M163.494 183.126H88.498l-9.375 9.375h93.746l-9.375-9.375Z" fill="#323D42"/><path d="M54.801 139.45c-.457-.1-.93-.097-1.386.009a3.132 3.132 0 0 0-2.417 3.044v6.25c0 .615.184 1.221.525 1.734 7.178 10.765 26.561 10.765 36.973 10.765a3.127 3.127 0 0 0 2.747-1.653 3.133 3.133 0 0 0-.147-3.203c-6.75-10.131-33.292-16.277-36.295-16.946Z" fill="url(#b)"/><path d="M194.742 155.787v5.465c0 5.706-4.803 6.225-6.25 6.25a3.125 3.125 0 1 0 0 6.25c5.025 0 12.499-3.328 12.499-12.5v-12.499c0 .615-.184 1.222-.525 1.734-1.459 2.187-3.434 3.909-5.724 5.3Z" fill="#323D42"/><path d="M166.725 99.296a3.122 3.122 0 0 0-1.737-1.025c-4.753-.985-16.137-2.64-38.995-2.64-22.859 0-34.243 1.652-38.995 2.64a3.13 3.13 0 0 0-1.738 1.025c-.372.44-9.262 7.83-9.262 21.333a3.125 3.125 0 0 0 3.125 3.125h93.746a3.125 3.125 0 0 0 3.124-3.125c0-13.503-8.89-20.893-9.268-21.333Z" fill="#2A3438"/><path d="M150.994 161.252h-49.998a3.125 3.125 0 1 1 0-6.25h49.998a3.126 3.126 0 0 1 0 6.25Z" fill="#323D42"/><path d="M199.822 140.062a3.143 3.143 0 0 0-2.631-.612c-3.003.669-29.545 6.815-36.295 16.943a3.12 3.12 0 0 0 2.6 4.856c10.415 0 29.795 0 36.973-10.765a3.128 3.128 0 0 0 .522-1.731v-6.25c0-.95-.431-1.844-1.169-2.441Z" fill="url(#c)"/><path d="M63.498 167.502c-.257 0-6.25-.106-6.25-9.375v-2.34c-2.288-1.388-4.266-3.113-5.725-5.3a3.149 3.149 0 0 1-.525-1.734v9.374c0 12.359 8.178 15.625 12.5 15.625a3.126 3.126 0 0 0 0-6.25Z" fill="#323D42"/><path d="M72.094 12.813A7.812 7.812 0 0 1 79.906 5h92.578a7.813 7.813 0 0 1 7.813 7.813v43.75a7.813 7.813 0 0 1-7.813 7.812H79.906a7.812 7.812 0 0 1-7.812-7.813v-43.75Z" fill="#65777F"/><path fill-rule="evenodd" clip-rule="evenodd" d="M172.484 10.86H79.906a1.953 1.953 0 0 0-1.953 1.953v43.75c0 1.078.875 1.953 1.953 1.953h92.578a1.954 1.954 0 0 0 1.954-1.953v-43.75a1.954 1.954 0 0 0-1.954-1.954ZM79.906 5a7.812 7.812 0 0 0-7.812 7.813v43.75a7.812 7.812 0 0 0 7.812 7.812h92.578a7.813 7.813 0 0 0 7.813-7.813v-43.75A7.813 7.813 0 0 0 172.484 5H79.906Z" fill="#323D42"/><path d="m89.637 47.578 10.687-24.96h5.063l10.687 24.96h-5.836l-2.215-5.273H97.688l-2.215 5.273h-5.836Zm13.218-17.613-3.164 7.488h6.293l-3.129-7.488Z" fill="url(#d)"/><path d="m116.637 51.445 13.57-28.828h4.781l-13.57 28.828h-4.781Z" fill="url(#e)"/><path d="M149.404 48c-3.774 0-6.903-1.242-9.387-3.727-2.484-2.484-3.727-5.543-3.727-9.175 0-3.633 1.243-6.692 3.727-9.176 2.484-2.485 5.613-3.727 9.387-3.727 2.789 0 5.332.832 7.629 2.496 2.32 1.641 3.82 3.809 4.5 6.504h-6.082a5.715 5.715 0 0 0-2.461-2.636 7.078 7.078 0 0 0-3.586-.95c-2.25 0-4.067.715-5.45 2.145-1.359 1.43-2.039 3.21-2.039 5.344 0 2.133.68 3.914 2.039 5.343 1.383 1.43 3.2 2.145 5.45 2.145a7.29 7.29 0 0 0 3.586-.914A5.91 5.91 0 0 0 155.451 39h6.082c-.68 2.695-2.18 4.875-4.5 6.54-2.297 1.64-4.84 2.46-7.629 2.46Z" fill="url(#f)"/><path fill-rule="evenodd" clip-rule="evenodd" d="M195.375 98.828c29.948-8.748 29.948-51.174 0-59.922a1.952 1.952 0 1 1 1.095-3.75c33.696 9.844 33.696 57.579 0 67.422a1.953 1.953 0 0 1-1.095-3.75Z" fill="url(#g)"/><path fill-rule="evenodd" clip-rule="evenodd" d="M57.016 98.828c-29.948-8.748-29.948-51.174 0-59.922a1.953 1.953 0 1 0-1.095-3.75c-33.697 9.844-33.697 57.579 0 67.422a1.954 1.954 0 0 0 1.095-3.75Z" fill="url(#h)"/></g><defs><linearGradient id="b" x1="71.306" y1="139.377" x2="71.306" y2="161.252" gradientUnits="userSpaceOnUse"><stop stop-color="#FF8A1E"/><stop offset="1" stop-color="#DA5A12"/></linearGradient><linearGradient id="c" x1="180.679" y1="139.377" x2="180.679" y2="161.249" gradientUnits="userSpaceOnUse"><stop stop-color="#FF8A1E"/><stop offset="1" stop-color="#DA5A12"/></linearGradient><linearGradient id="d" x1="126.195" y1="5" x2="126.195" y2="64.375" gradientUnits="userSpaceOnUse"><stop stop-color="#77E6FD"/><stop offset="1" stop-color="#26A4D9"/></linearGradient><linearGradient id="e" x1="126.195" y1="5" x2="126.195" y2="64.375" gradientUnits="userSpaceOnUse"><stop stop-color="#77E6FD"/><stop offset="1" stop-color="#26A4D9"/></linearGradient><linearGradient id="f" x1="126.195" y1="5" x2="126.195" y2="64.375" gradientUnits="userSpaceOnUse"><stop stop-color="#77E6FD"/><stop offset="1" stop-color="#26A4D9"/></linearGradient><linearGradient id="g" x1="221.742" y1="68.867" x2="193.969" y2="68.867" gradientUnits="userSpaceOnUse"><stop stop-color="#77E6FD"/><stop offset="1" stop-color="#26A4D9"/></linearGradient><linearGradient id="h" x1="30.648" y1="68.867" x2="58.422" y2="68.867" gradientUnits="userSpaceOnUse"><stop stop-color="#77E6FD"/><stop offset="1" stop-color="#26A4D9"/></linearGradient><filter id="a" x="-4" y="0" width="260" height="310" filterUnits="userSpaceOnUse" color-interpolation-filters="sRGB"><feFlood flood-opacity="0" result="BackgroundImageFix"/><feColorMatrix in="SourceAlpha" values="0 0 0 0 0 0 0 0 0 0 0 0 0 0 0 0 0 0 127 0" result="hardAlpha"/><feOffset/><feColorMatrix values="0 0 0 0 0.0784314 0 0 0 0 0.0941176 0 0 0 0 0.105882 0 0 0 0.1 0"/><feBlend in2="BackgroundImageFix" result="effect1_dropShadow_453_21277"/><feColorMatrix in="SourceAlpha" values="0 0 0 0 0 0 0 0 0 0 0 0 0 0 0 0 0 0 127 0" result="hardAlpha"/><feOffset dy="5"/><feGaussianBlur stdDeviation="5"/><feColorMatrix values="0 0 0 0 0.0784314 0 0 0 0 0.0941176 0 0 0 0 0.105882 0 0 0 0.1 0"/><feBlend in2="effect1_dropShadow_453_21277" result="effect2_dropShadow_453_21277"/><feColorMatrix in="SourceAlpha" values="0 0 0 0 0 0 0 0 0 0 0 0 0 0 0 0 0 0 127 0" result="hardAlpha"/><feOffset dy="19"/><feGaussianBlur stdDeviation="9.5"/><feColorMatrix values="0 0 0 0 0.0784314 0 0 0 0 0.0941176 0 0 0 0 0.105882 0 0 0 0.08 0"/><feBlend in2="effect2_dropShadow_453_21277" result="effect3_dropShadow_453_21277"/><feColorMatrix in="SourceAlpha" values="0 0 0 0 0 0 0 0 0 0 0 0 0 0 0 0 0 0 127 0" result="hardAlpha"/><feOffset dy="42"/><feGaussianBlur stdDeviation="12.5"/><feColorMatrix values="0 0 0 0 0.0784314 0 0 0 0 0.0941176 0 0 0 0 0.105882 0 0 0 0.05 0"/><feBlend in2="effect3_dropShadow_453_21277" result="effect4_dropShadow_453_21277"/><feColorMatrix in="SourceAlpha" values="0 0 0 0 0 0 0 0 0 0 0 0 0 0 0 0 0 0 127 0" result="hardAlpha"/><feOffset dy="75"/><feGaussianBlur stdDeviation="15"/><feColorMatrix values="0 0 0 0 0.0784314 0 0 0 0 0.0941176 0 0 0 0 0.105882 0 0 0 0.01 0"/><feBlend in2="effect4_dropShadow_453_21277" result="effect5_dropShadow_453_21277"/><feBlend in="SourceGraphic" in2="effect5_dropShadow_453_21277" result="shape"/></filter></defs></svg>