<svg width="268" height="319" fill="none" xmlns="http://www.w3.org/2000/svg"><g filter="url(#a)"><path d="M89.35 57.152a96.117 96.117 0 0 0-24.725-5.29 10.289 10.289 0 0 1-19.312-.344c-.205.028-.412.04-.619.034a13.75 13.75 0 0 1-7.803-25.049A10.312 10.312 0 1 1 49.13 10.52a13.75 13.75 0 0 1 22.55 6.394 10.054 10.054 0 0 1 7.39-3.163 10.312 10.312 0 1 1-1.485 20.518 30.336 30.336 0 0 0 14.898 11.953" fill="#25B3D0"/><path d="M92.482 46.22a30.336 30.336 0 0 1-14.898-11.952A10.313 10.313 0 1 0 79.07 13.75a10.055 10.055 0 0 0-7.39 3.163 13.749 13.749 0 0 0-22.55-6.394 10.24 10.24 0 0 0-7.33-3.586 10.13 10.13 0 0 0 5.336 12.695 13.75 13.75 0 0 0 7.803 25.06c.207.005.414-.006.619-.035a10.288 10.288 0 0 0 19.311.344 96.187 96.187 0 0 1 17.116 2.966l.498-1.742Z" fill="#6DE6FF"/><path d="M178.688 174.897V55a13.75 13.75 0 0 0-13.75-13.75h-61.876A13.75 13.75 0 0 0 89.312 55v119.897c0 4.668-1.855 9.145-5.156 12.447A17.605 17.605 0 0 0 79 199.791a8.963 8.963 0 0 0 6.126 8.501 94.118 94.118 0 0 0 29.772 4.833h38.19a94.202 94.202 0 0 0 29.786-4.833 8.958 8.958 0 0 0 6.126-8.501 17.607 17.607 0 0 0-5.156-12.447 17.606 17.606 0 0 1-5.156-12.447Z" fill="#323D42"/><path d="M116.812 41.25h34.376v171.875h-34.376V41.25Zm-13.75 0a13.672 13.672 0 0 0-3.437.485V211.87c2.279.375 4.572.643 6.875.849V41.25h-3.438Zm61.876 0H161.5v171.469a93.764 93.764 0 0 0 6.875-.852V41.735a13.672 13.672 0 0 0-3.437-.485Z" fill="#51626B"/><path d="m137.438 143.571 13.75 8.25v-8.02l-13.75-8.247v-9.171l13.75 8.25v-8.016l-13.75-8.25v-9.171l13.75 8.25v-8.017l-13.75-8.25v-9.17l13.75 8.249v-8.016l-13.75-8.25V74.82l13.75 8.25v-8.02l-13.75-8.247v-9.17l13.75 8.25v-8.017l-13.75-8.25V41.25h-6.876v8.367l-13.75 8.25v8.016l13.75-8.25v9.171l-13.75 8.25v8.017l13.75-8.25v9.17l-13.75 8.25v8.017l13.75-8.25v9.171l-13.75 8.247v8.02l13.75-8.25v9.171l-13.75 8.246v8.02l13.75-8.25v9.171l-13.75 8.247v8.02l13.75-8.25v9.171l-13.75 8.246v8.02l13.75-8.25v9.171l-13.75 8.25v8.017l13.75-8.25v9.171l-13.75 8.246v8.02l13.75-8.25v17.992h6.876v-17.992l13.75 8.25v-8.02l-13.75-8.246v-9.171l13.75 8.25v-8.02l-13.75-8.247v-9.171l13.75 8.25v-8.016l-13.75-8.25v-9.171Z" fill="#323D42"/><path d="M178.688 94.617a30.348 30.348 0 0 1 15.716 12.932l.416.688a6.869 6.869 0 0 0-1.948 7.598 6.874 6.874 0 0 0 6.44 4.477c.15.006.3-.005.447-.034a14.372 14.372 0 0 0-.447 3.472 13.746 13.746 0 0 0 10.276 13.309 13.748 13.748 0 0 0 15.471-6.585 10.337 10.337 0 0 0 8.39-2.282 10.324 10.324 0 0 0 3.676-7.88 10.22 10.22 0 0 0-5.947-9.315 13.75 13.75 0 0 0-7.803-25.06 3.735 3.735 0 0 0-.619.035 10.284 10.284 0 0 0-11.277-6.805 10.29 10.29 0 0 0-8.729 9.864 46.965 46.965 0 0 1-24.062-10.288" fill="#25B3D0"/><path d="M237.125 99.688a13.752 13.752 0 0 0-13.75-13.75 3.735 3.735 0 0 0-.619.034 10.284 10.284 0 0 0-11.277-6.805 10.29 10.29 0 0 0-8.729 9.864 46.965 46.965 0 0 1-24.062-10.288v5.098a29.688 29.688 0 0 1 16.07 9.143 30.267 30.267 0 0 1 3.094 4.256l.415.688a6.873 6.873 0 0 0-1.944 7.59A6.873 6.873 0 0 0 202.75 110c.15.006.3-.006.447-.034-1.279 5.121-.323 11.728 9.79 16.393a8.373 8.373 0 0 0 3.389.828 13.75 13.75 0 0 0 12.121-7.026 11.848 11.848 0 0 0 8.374-1.963 10.212 10.212 0 0 0-5.707-7.218 13.646 13.646 0 0 0 5.961-11.293Z" fill="#6DE6FF"/></g><defs><filter id="a" x="-6" y="-5" width="280" height="330" filterUnits="userSpaceOnUse" color-interpolation-filters="sRGB"><feFlood flood-opacity="0" result="BackgroundImageFix"/><feColorMatrix in="SourceAlpha" values="0 0 0 0 0 0 0 0 0 0 0 0 0 0 0 0 0 0 127 0" result="hardAlpha"/><feOffset/><feColorMatrix values="0 0 0 0 0.0784314 0 0 0 0 0.0941176 0 0 0 0 0.105882 0 0 0 0.1 0"/><feBlend in2="BackgroundImageFix" result="effect1_dropShadow_453_21331"/><feColorMatrix in="SourceAlpha" values="0 0 0 0 0 0 0 0 0 0 0 0 0 0 0 0 0 0 127 0" result="hardAlpha"/><feOffset dy="5"/><feGaussianBlur stdDeviation="5"/><feColorMatrix values="0 0 0 0 0.0784314 0 0 0 0 0.0941176 0 0 0 0 0.105882 0 0 0 0.1 0"/><feBlend in2="effect1_dropShadow_453_21331" result="effect2_dropShadow_453_21331"/><feColorMatrix in="SourceAlpha" values="0 0 0 0 0 0 0 0 0 0 0 0 0 0 0 0 0 0 127 0" result="hardAlpha"/><feOffset dy="19"/><feGaussianBlur stdDeviation="9.5"/><feColorMatrix values="0 0 0 0 0.0784314 0 0 0 0 0.0941176 0 0 0 0 0.105882 0 0 0 0.08 0"/><feBlend in2="effect2_dropShadow_453_21331" result="effect3_dropShadow_453_21331"/><feColorMatrix in="SourceAlpha" values="0 0 0 0 0 0 0 0 0 0 0 0 0 0 0 0 0 0 127 0" result="hardAlpha"/><feOffset dy="42"/><feGaussianBlur stdDeviation="12.5"/><feColorMatrix values="0 0 0 0 0.0784314 0 0 0 0 0.0941176 0 0 0 0 0.105882 0 0 0 0.05 0"/><feBlend in2="effect3_dropShadow_453_21331" result="effect4_dropShadow_453_21331"/><feColorMatrix in="SourceAlpha" values="0 0 0 0 0 0 0 0 0 0 0 0 0 0 0 0 0 0 127 0" result="hardAlpha"/><feOffset dy="75"/><feGaussianBlur stdDeviation="15"/><feColorMatrix values="0 0 0 0 0.0784314 0 0 0 0 0.0941176 0 0 0 0 0.105882 0 0 0 0.01 0"/><feBlend in2="effect4_dropShadow_453_21331" result="effect5_dropShadow_453_21331"/><feBlend in="SourceGraphic" in2="effect5_dropShadow_453_21331" result="shape"/></filter></defs></svg>