<svg width="308" height="121" fill="none" xmlns="http://www.w3.org/2000/svg"><g filter="url(#a)"><mask id="b" style="mask-type:alpha" maskUnits="userSpaceOnUse" x="21" y="1" width="113" height="95"><path fill-rule="evenodd" clip-rule="evenodd" d="M85.225 15.1c-3.852-8.171 2.717-12.393 6.483-13.482-.952 4.778.843 5.905 3.064 7.3 1.323.83 2.797 1.756 3.932 3.604 2.136 3.476 2.23 5.354 2.114 8.098.145 3.334.962 2.818 2.578 1.796.803-.507 1.803-1.14 3.016-1.486-1.655 1.312-2.95 4.375-.112 6.648 2.443 1.957 3.794-.65 5-2.978.546-1.054 1.062-2.05 1.636-2.54 2.469-2.104 4.854-2.382 5.82-.259.659 1.45 2.259 1.05 3.717.687.678-.17 1.326-.33 1.833-.295.677.048 1.555.43 2.548.863 1.352.59 2.917 1.272 4.482 1.331 1.351.051 1.949.023 2.17-.022-.838 1.093-2.453 4.042-2.721 7.846-.181 2.572-2.5 6.112-4.799 8.971.969.722 1.785 2.888 2.501 4.788.249.66.485 1.287.711 1.811.782 1.807 2.137 1.952 2.332 1.961a3.437 3.437 0 0 0-.24.018c-.555.062-1.293.518-2.176 1.064-.69.427-1.469.909-2.319 1.3-1.937.89-3.298-.055-3.936-.502-.072-.05-.147-.105-.226-.162-.619-.453-1.43-1.046-2.179-.544-.843.567-1.187 1.66-.466 2.827.576.934 2.188 1.033 2.921.966-.556.303-1.881 1.493-2.724 3.828-.809 2.242-2.556 3.601-3.65 4.452-.331.257-.602.468-.769.642-.454.474-.416.964-.369 1.57.028.36.059.758-.006 1.219-.177 1.238-3.607 3.051-6.636 1.72-2.852-1.252-3.525-.887-4.096-.577l-.107.057c-.513.268-1.864 2.386.526 2.673 2.159.26 3.845 1.374 4.546 1.974-.072-.005-.134-.011-.196-.017-.245-.025-.48-.048-1.231.006-2.722.195-2.554 2.053-2.198 3.33.483 1.731 4.828 4.942 6.634-.426 1.806-5.367 10.823-1.448 9.799-1.006-2.849 1.231-2.623 2.352-2.263 4.142.291 1.45.671 3.338-.42 6.079-2.555 6.415-8.176 6.888-10.133 7.052l-.317.028c-.77.077-1.786-.291-2.797-.658-1.056-.383-2.107-.764-2.869-.635-1.156.196-1.358 1.028-1.484 1.545l-.011.047c-.03-.002.507-.232 1.478-.074 1.15.187 2.662 1.275 3.341 1.978a.265.265 0 0 1-.075.013 1.784 1.784 0 0 0-.515.124c-.148.054-.265.145-.49.32-.3.234-.793.617-1.808 1.26-1.42.9-4.728-.453-6.204-1.242l-13.8-14.422 1.588-7.7-8.216.405c-10.6 6.796-28.103 18.224-28.443 19.294-.367 1.154-1.587 2.256-2.151 2.663.088-.202.14-.848-.364-1.813-.462-.886-.294-2.37-.121-3.162-.104.31-.4.908-1.075 1.782-1.08 1.398-2.186 2.526-6.16 3.184-2.607.431-5.078-.782-6.862-1.657-.934-.458-1.68-.824-2.156-.812-.672.018-1.157.15-1.47.29.208-.38.478-1.168.789-2.661.742-3.566 3.015-4.791 4.69-4.494 1.674.297 4.047-2.976 1.871-3.13-1.74-.122-2.822-1.956-3.145-2.857.67.836 2.29 1.814 3.414-.966 1.405-3.475-1.748-4.323-5.828-2.779-3.264 1.235-8.163-3.212-9.26-5.39.104.008.22.058.351.116.43.19 1.032.453 1.952-.49.227-.232.497-.492.79-.775 1.45-1.398 3.489-3.365 3.93-5.414l.609-3.576 11.18-2.714 1.702-4.06c-1.257-1.162-2.525-6.603-2.477-7.28.502 1.734 4.168 2.78 4.858.076.598-2.341-.91-2.751-2.415-3.16-.668-.182-1.335-.363-1.818-.713-.114-.083-.23-.163-.344-.243-1.461-1.014-2.941-2.043-4.241-10.044-.038-.23-.07-.402-.094-.524-.032-.168-.046-.242-.03-.25.012-.005.044.031.1.096.256.295 1.025 1.18 2.871 1.415.975.124 2.193-.232 3.617-.648 2.9-.847 6.656-1.944 10.96.248 3.443 1.753 4.343 3.514 4.997 4.794.23.449.429.838.697 1.148.426.491.553.046.746-.632.274-.962.681-2.395 2.27-2.283.06.004.025.189-.032.497-.203 1.087-.69 3.709 1.63 5.335a.816.816 0 0 0 .146.077l-.286-.623c-2.662-5.8 2.607-10.405 4.189-10.695-.408.09-.88 4.852.561 7.233 3.758 6.207 9.52-.847 8.763-3.403-1.216-4.107 2.013-5.13 1.997-4.907-.557 7.904 11.694-3.196 6.88-13.41ZM28.237 92.434c.07.104.209.096.398-.25a1.32 1.32 0 0 0-.398.25Zm105.338-68.157-.069.088c.134-.027.129-.061.069-.088Zm-20.3-7.459c-.89-.007-1.934-.016-2.673 1.09-1.186 1.77.907 1.672 1.537 1.03.208-.211.382-.477.563-.752.366-.558.757-1.155 1.512-1.425-.272.063-.594.06-.939.057ZM69.982 34.047c-.896-2.096-.03-3.538.708-4.767.286-.477.553-.922.69-1.36-.25 1.31.24 2.431.7 3.478.225.517.444 1.015.561 1.509.356 1.495-1.221 4.5-2.659 1.14Zm42.562 38.277c.914.268 1.501-.272 2.001-.733.194-.179.375-.345.557-.448-.548.229-1.038.08-1.495-.06-.226-.068-.444-.134-.656-.151-.645-.053-1.874.962-.407 1.392Zm16.451-30.02c-.346.115-.751.25-1.186-.088-.697-.541.131-.766.462-.596.109.057.212.138.319.223.216.171.448.355.778.365-.114.01-.239.052-.373.096Z" fill="#544F5E"/></mask><g mask="url(#b)" fill-rule="evenodd" clip-rule="evenodd"><path d="M85.225 15.1c-3.852-8.171 2.717-12.393 6.483-13.482-.952 4.778.843 5.905 3.064 7.3 1.323.83 2.797 1.756 3.932 3.604 2.136 3.476 2.23 5.354 2.114 8.098.145 3.334.962 2.818 2.578 1.796.803-.507 1.803-1.14 3.016-1.486-1.655 1.312-2.95 4.375-.112 6.648 2.443 1.957 3.794-.65 5-2.978.546-1.054 1.062-2.05 1.636-2.54 2.469-2.104 4.854-2.382 5.82-.259.659 1.45 2.259 1.05 3.717.687.678-.17 1.326-.33 1.833-.295.677.048 1.555.43 2.548.863 1.352.59 2.917 1.272 4.482 1.331 1.351.051 1.949.023 2.17-.022-.838 1.093-2.453 4.042-2.721 7.846-.181 2.572-2.5 6.112-4.799 8.971.969.722 1.785 2.888 2.501 4.788.249.66.485 1.287.711 1.811.782 1.807 2.137 1.952 2.332 1.961a3.437 3.437 0 0 0-.24.018c-.555.062-1.293.518-2.176 1.064-.69.427-1.469.909-2.319 1.3-1.937.89-3.298-.055-3.936-.502-.072-.05-.147-.105-.226-.162-.619-.453-1.43-1.046-2.179-.544-.843.567-1.187 1.66-.466 2.827.576.934 2.188 1.033 2.921.966-.556.303-1.881 1.493-2.724 3.828-.809 2.242-2.556 3.601-3.65 4.452-.331.257-.602.468-.769.642-.454.474-.416.964-.369 1.57.028.36.059.758-.006 1.219-.177 1.238-3.607 3.051-6.636 1.72-2.852-1.252-3.525-.887-4.096-.577l-.107.057c-.513.268-1.864 2.386.526 2.673 2.159.26 3.845 1.374 4.546 1.974-.072-.005-.134-.011-.196-.017-.245-.025-.48-.048-1.231.006-2.722.195-2.554 2.053-2.198 3.33.483 1.731 4.828 4.942 6.634-.426 1.806-5.367 10.823-1.448 9.799-1.006-2.849 1.231-2.623 2.352-2.263 4.142.291 1.45.671 3.338-.42 6.079-2.555 6.415-8.176 6.888-10.133 7.052l-.317.028c-.77.077-1.786-.291-2.797-.658-1.056-.383-2.107-.764-2.869-.635-1.156.196-1.358 1.028-1.484 1.545l-.011.047c-.03-.002.507-.232 1.478-.074 1.15.187 2.662 1.275 3.341 1.978a.265.265 0 0 1-.075.013 1.784 1.784 0 0 0-.515.124c-.148.054-.265.145-.49.32-.3.234-.793.617-1.808 1.26-1.42.9-4.728-.453-6.204-1.242l-13.8-14.422 1.588-7.7-8.216.405c-10.6 6.796-28.103 18.224-28.443 19.294-.367 1.154-1.587 2.256-2.151 2.663.088-.202.14-.848-.364-1.813-.462-.886-.294-2.37-.121-3.162-.104.31-.4.908-1.075 1.782-1.08 1.398-2.186 2.526-6.16 3.184-2.607.431-5.078-.782-6.862-1.657-.934-.458-1.68-.824-2.156-.812-.672.018-1.157.15-1.47.29.208-.38.478-1.168.789-2.661.742-3.566 3.015-4.791 4.69-4.494 1.674.297 4.047-2.976 1.871-3.13-1.74-.122-2.822-1.956-3.145-2.857.67.836 2.29 1.814 3.414-.966 1.405-3.475-1.748-4.323-5.828-2.779-3.264 1.235-8.163-3.212-9.26-5.39.104.008.22.058.351.116.43.19 1.032.453 1.952-.49.227-.232.497-.492.79-.775 1.45-1.398 3.489-3.365 3.93-5.414l.609-3.576 11.18-2.714 1.702-4.06c-1.257-1.162-2.525-6.603-2.477-7.28.502 1.734 4.168 2.78 4.858.076.598-2.341-.91-2.751-2.415-3.16-.668-.182-1.335-.363-1.818-.713-.114-.083-.23-.163-.344-.243-1.461-1.014-2.941-2.043-4.241-10.044-.038-.23-.07-.402-.094-.524-.032-.168-.046-.242-.03-.25.012-.005.044.031.1.096.256.295 1.025 1.18 2.871 1.415.975.124 2.193-.232 3.617-.648 2.9-.847 6.656-1.944 10.96.248 3.443 1.753 4.343 3.514 4.997 4.794.23.449.429.838.697 1.148.426.491.553.046.746-.632.274-.962.681-2.395 2.27-2.283.06.004.025.189-.032.497-.203 1.087-.69 3.709 1.63 5.335a.816.816 0 0 0 .146.077l-.286-.623c-2.662-5.8 2.607-10.405 4.189-10.695-.408.09-.88 4.852.561 7.233 3.758 6.207 9.52-.847 8.763-3.403-1.216-4.107 2.013-5.13 1.997-4.907-.557 7.904 11.694-3.196 6.88-13.41ZM28.237 92.434c.07.104.209.096.398-.25a1.32 1.32 0 0 0-.398.25Zm105.338-68.157-.069.088c.134-.027.129-.061.069-.088Zm-20.3-7.459c-.89-.007-1.934-.016-2.673 1.09-1.186 1.77.907 1.672 1.537 1.03.208-.211.382-.477.563-.752.366-.558.757-1.155 1.512-1.425-.272.063-.594.06-.939.057ZM69.982 34.047c-.896-2.096-.03-3.538.708-4.767.286-.477.553-.922.69-1.36-.25 1.31.24 2.431.7 3.478.225.517.444 1.015.561 1.509.356 1.495-1.221 4.5-2.659 1.14Zm42.562 38.277c.914.268 1.501-.272 2.001-.733.194-.179.375-.345.557-.448-.548.229-1.038.08-1.495-.06-.226-.068-.444-.134-.656-.151-.645-.053-1.874.962-.407 1.392Zm16.451-30.02c-.346.115-.751.25-1.186-.088-.697-.541.131-.766.462-.596.109.057.212.138.319.223.216.171.448.355.778.365-.114.01-.239.052-.373.096Z" fill="url(#c)"/><path d="M88.168 19.462c-3.418-7.27 1.127-9.905 4.47-10.875-.846 4.252.747 5.255 2.72 6.496 1.173.739 2.482 1.562 3.49 3.206 1.889 3.083 1.977 4.753 1.876 7.183.125 2.992.85 2.533 2.289 1.62.713-.45 1.601-1.014 2.678-1.322-1.469 1.168-2.62 3.894-.1 5.916 2.168 1.74 3.368-.58 4.439-2.651.484-.938.943-1.824 1.453-2.26 2.192-1.873 4.309-2.121 5.166-.232.585 1.29 2.006.934 3.3.61.602-.15 1.177-.294 1.628-.262.601.043 1.38.383 2.262.768 1.199.524 2.589 1.131 3.978 1.184 1.199.045 1.73.02 1.926-.02-.744.972-2.178 3.597-2.416 6.982-.162 2.289-2.221 5.44-4.263 7.985.86.642 1.584 2.569 2.219 4.26.22.586.43 1.145.631 1.61.694 1.609 1.896 1.738 2.07 1.746-.032 0-.1.004-.213.016-.493.054-1.148.46-1.932.947-.613.38-1.304.809-2.059 1.157-1.719.793-2.928-.048-3.494-.446a9.72 9.72 0 0 1-.2-.145c-.55-.402-1.27-.93-1.935-.483-.748.504-1.054 1.476-.415 2.516.512.83 1.943.919 2.594.859-.494.27-1.67 1.329-2.419 3.407-.718 1.995-2.27 3.205-3.241 3.962-.294.229-.534.416-.683.572-.403.42-.369.857-.327 1.397.024.32.052.674-.006 1.084-.157 1.102-3.202 2.716-5.892 1.532-2.531-1.114-3.129-.789-3.636-.513l-.095.05c-.455.24-1.655 2.124.466 2.38 1.917.23 3.414 1.221 4.036 1.755a5.956 5.956 0 0 1-.174-.015c-.217-.022-.425-.043-1.093.005-2.416.175-2.268 1.828-1.951 2.964.429 1.54 4.285 4.397 5.889-.38 1.604-4.776 9.609-1.29 8.699-.896-2.529 1.096-2.329 2.093-2.009 3.686.258 1.29.595 2.97-.374 5.41-2.269 5.709-7.26 6.13-8.997 6.277l-.281.025c-.684.068-1.585-.26-2.483-.586-.938-.34-1.871-.68-2.547-.564-1.027.174-1.206.915-1.317 1.375l-.011.041c-.026-.001.451-.206 1.312-.066 1.021.166 2.363 1.134 2.966 1.76a.23.23 0 0 1-.066.011c-.072.006-.2.017-.457.111-.131.048-.235.129-.435.285-.267.208-.705.549-1.605 1.122-1.261.801-4.198-.403-5.508-1.105L85.842 78.081l1.411-6.852-6.486.321c-9.728 6.874-28.549 20.404-28.885 21.577-.341 1.189-1.498 2.34-2.034 2.766.083-.208.126-.87-.364-1.85-.45-.9-.302-2.425-.144-3.239-.096.32-.374.938-1.012 1.845-1.021 1.452-2.069 2.627-5.863 3.37-2.49.488-4.864-.712-6.578-1.577-.897-.453-1.614-.815-2.07-.794-.642.03-1.104.174-1.402.322.196-.393.447-1.204.731-2.74.679-3.667 2.842-4.962 4.446-4.687 1.604.275 3.845-3.12 1.763-3.239-1.666-.095-2.716-1.955-3.033-2.873.647.845 2.206 1.82 3.257-1.049 1.313-3.585-1.872-7.425-5.761-5.772-3.111 1.323-7.673-.122-8.74-2.334.1.006.21.056.336.112.414.187.99.447 1.862-.535.216-.242.471-.514.75-.81 1.373-1.457 3.307-3.508 3.71-5.615l.552-3.674 14.985-4.18.945-2.26c-1.116-1.034-2.24-5.876-2.198-6.477.445 1.542 3.7 2.471 4.313.066.53-2.084-.808-2.448-2.144-2.812-.593-.162-1.185-.323-1.614-.634-.101-.074-.203-.145-.305-.217-1.297-.902-2.611-1.817-3.764-8.937a14.53 14.53 0 0 0-.083-.466c-.028-.15-.041-.216-.027-.222.011-.005.04.027.09.085.227.262.91 1.05 2.548 1.259.652.083 1.395.09 2.231.097 2.529.022 5.906.052 10.189 2.237 2.95 1.505 3.649 3.466 4.141 4.85.197.551.36 1.011.622 1.314.382.442.608-.244.917-1.18.43-1.307 1.02-3.101 2.421-3.002.051.003.03.067-.007.185-.136.428-.499 1.564 1.576 3.022.482.339 3.147.63 6.782.883.631-1.209 1.47-2.166 2.11-1.105.366.607.696 1.03.992 1.302.445.026.898.051 1.357.076 1.088-1.283 1.088-6.21.633-7.752-1.08-3.655 1.787-4.565 1.773-4.368-.495 7.034 11.67-3.968 7.397-13.056Zm-56.132 74.77c.069.106.2.095.379-.262a1.271 1.271 0 0 0-.379.262Zm97.707-65.41.016-.02.046-.058c.053.024.057.054-.062.079Zm-17.961-6.712c-.79-.006-1.717-.014-2.373.97-1.053 1.576.805 1.488 1.364.917.185-.189.34-.425.5-.67.325-.496.672-1.028 1.342-1.268-.241.056-.527.054-.833.051ZM73.346 37.448c-.795-1.865-.026-3.148.63-4.242.253-.424.49-.82.612-1.21-.222 1.165.213 2.163.62 3.095.2.46.394.902.499 1.342.316 1.33-1.085 4.004-2.36 1.015Zm37.778 34.056c.812.238 1.333-.243 1.777-.654.172-.159.333-.307.495-.399-.487.204-.922.072-1.328-.052-.2-.061-.393-.12-.582-.135-.573-.047-1.664.857-.362 1.24Zm14.608-26.717c-.306.102-.666.223-1.052-.078-.619-.482.116-.682.41-.53.097.05.188.122.283.198.192.152.398.315.691.324a1.52 1.52 0 0 0-.332.086Z" fill="#fff" fill-opacity=".26"/><path d="M92.653 29.432c.18-4.682 3.239-4.825 5.23-4.428-1.578 1.973-1.022 2.92-.334 4.093.41.698.866 1.476.947 2.597.165 2.292-.327 3.142-1.15 4.563-.257.442-.546.94-.857 1.554-.36.712-1.116 1.65-2.037 2.644.208.866.718.563 1.54.075.533-.316 1.197-.71 1.995-.913-1.104.826-2.007 2.802-.201 4.341 1.554 1.325 2.485-.353 3.316-1.85.376-.678.731-1.32 1.115-1.628 1.65-1.328 3.209-1.464 3.798-.059.402.96 1.452.73 2.409.52.446-.098.871-.191 1.201-.158.44.044 1.005.31 1.644.612.869.411 1.876.887 2.895.955.88.059 1.27.052 1.415.027-.568.698-1.677 2.594-1.925 5.074-.167 1.677-1.747 3.946-3.301 5.77.617.49 1.107 1.92 1.537 3.175.149.435.291.85.429 1.196.474 1.196 1.354 1.316 1.481 1.326-.023 0-.073 0-.156.007-.363.03-.853.314-1.439.654-.458.265-.975.565-1.536.804-1.28.546-2.149-.098-2.556-.402l-.144-.11c-.394-.308-.912-.71-1.409-.397-.561.354-.806 1.061-.359 1.838.358.621 1.406.716 1.886.686-.369.188-1.255.94-1.849 2.45-.571 1.449-1.736 2.303-2.466 2.838-.22.162-.4.294-.513.405-.305.3-.29.622-.27 1.019.011.235.024.496-.028.796-.139.805-1.343 1.841-3.292.914-1.834-.872-2.28-.646-2.659-.455l-.07.035c-.34.166-1.261 1.523.29 1.757 1.403.21 2.48.97 2.926 1.376a3.905 3.905 0 0 1-.128-.015c-.159-.02-.311-.04-.802-.02-1.693.072-1.457 1.008-1.25 1.823l.03.122c.281 1.14 2.639 4.847 3.919 1.375 1.28-3.472 6.138 1.479 5.462 1.748-1.88.75-1.755 1.487-1.554 2.663.162.952.373 2.193-.391 3.963-1.437 3.329-4.083 2.122-5.73 1.37-.529-.24-.954-.434-1.204-.417-.503.036-1.158-.224-1.81-.483-.68-.27-1.359-.54-1.857-.47-.758.106-.905.646-.997.981l-.009.03c-.019-.001.336-.141.965-.02.746.144 1.71.884 2.14 1.356a.152.152 0 0 1-.05.007c-.052.003-.146.008-.337.072-.098.032-.176.09-.326.2-.2.146-.529.387-1.203.788-.942.561-3.072-.386-4.02-.93l-8.715-9.684.94-3.973-4.84-.722C71.016 77.793 57.3 87.063 57.033 87.905c-.276.865-1.15 1.685-1.553 1.987.066-.152.112-.637-.226-1.367-.311-.67-.17-1.786-.037-2.38-.077.233-.295.68-.783 1.332-.78 1.044-1.575 1.884-4.376 2.348-1.839.304-3.556-.627-4.795-1.3-.65-.352-1.167-.633-1.502-.628-.473.008-.815.104-1.037.206.152-.284.354-.874.595-1.995.578-2.678 2.193-3.581 3.365-3.345 1.172.237 2.89-2.207 1.364-2.34-1.22-.106-1.952-1.494-2.165-2.174.458.634 1.581 1.383 2.414-.7 1.042-2.604-1.215-5.491-4.105-4.362-2.313.904-5.63-.255-6.366-1.902a.755.755 0 0 1 .245.09c.299.145.717.349 1.378-.353.163-.173.357-.367.567-.578 1.04-1.04 2.504-2.504 2.846-4.042l.483-2.686 9.039-2.238-3.313-2.054 2.99-4.434c-.655-.905-.768-4.555-.651-4.982.099 1.175 2.309 2.314 3.097.67.681-1.424-.23-1.88-1.14-2.334-.404-.202-.807-.404-1.07-.69a13.934 13.934 0 0 0-.19-.2c-.804-.836-1.619-1.684-1.425-6.979.005-.152.006-.266.007-.347.001-.112.002-.162.013-.164.009-.002.024.025.052.074.126.222.504.887 1.654 1.274.458.154.992.266 1.593.392 1.818.38 4.246.889 7.016 3.08 1.909 1.51 2.13 3.022 2.285 4.089.062.426.114.78.259 1.036.212.374.473-.088.83-.718.498-.879 1.181-2.086 2.176-1.812.036.01.012.053-.032.132-.16.289-.584 1.055.7 2.404.658.691 8.998 2.744 15.634 4.378 1.723.424 3.33.82 4.66 1.156l.315-1.334 4.692-7.71-1.68-2.444a70.37 70.37 0 0 1-1.878 1.64L74.79 43.447c.116-.615.587-.55 1.117-.476.776.108 1.676.233 1.772-1.731.047-.972-.023-1.534-.125-1.837.502-.584 2.35-2.116 2.429-.919.245 3.755 2.99-1.14 3.252-2.498.421-2.182 2.15-1.883 2.09-1.785-2.143 3.508 7.103 1.082 7.328-4.77ZM77.44 39.61c-.032-.012.015-.09.115-.207-.245-.73-.675.034-.115.207ZM42.724 88.103a.933.933 0 0 0-.284.185c.048.079.145.074.284-.184Zm72.901-45.782-.046.056c.088-.015.085-.038.046-.056Zm-13.088-5.26c-.579-.021-1.26-.047-1.763.661-.806 1.135.559 1.11.982.703.14-.134.258-.304.381-.48.25-.358.516-.74 1.013-.903-.178.036-.388.028-.613.02ZM73.99 47.493c-.544-1.386.048-2.311.553-3.1.195-.306.378-.592.476-.876-.189.85.11 1.593.388 2.286.138.342.27.671.338.996.203.984-.883 2.916-1.755.694Zm27 25.817c.591.192.984-.15 1.319-.442.129-.113.251-.218.371-.282-.361.14-.678.033-.973-.067a2.111 2.111 0 0 0-.425-.112c-.419-.046-1.24.594-.292.903Zm11.301-19.299c-.227.069-.494.15-.771-.08-.444-.367.1-.498.312-.38.07.039.136.094.204.151.138.117.285.24.5.254-.075.004-.157.029-.245.055Z" fill="#2AB8FB" fill-opacity=".46"/></g><path d="M46.494 115.914c-1.079.063-3.078.201-3.943.262 1.689-2.977-2.1-4.722-2.301-11.146-.202-6.425 7.26-5.85 6.121-6.486l-.72-.041c-.465.022-1.068.056-1.622-.094-1.558-.422-3.166-1.37-2.898-1.56 5.266-3.726 5.784-13.28 8.823-11.627 3.039 1.654 7.37 14.349 9.391 17.111 2.275 3.111 3.133 6.221 2.109 8.99s-9.416 3.932-6.86 3.073-1.768-7.181-3.041-2.873c-1.274 4.308-3.71 4.313-5.059 4.391Z" fill="#32C2FB"/><path d="M49.133 111.265c-.8.048-2.284.154-2.926.201 1.258-2.205-1.549-3.49-1.688-8.242-.138-4.752 5.395-4.34 4.552-4.808l-.535-.03c-.345.018-.792.044-1.202-.066-1.156-.31-2.346-1.009-2.147-1.15 3.912-2.764 7.949-.125 10.2 1.093 2.251 1.218 1.806.894 3.3 2.934 1.683 2.297 2.314 4.596 1.55 6.647-.765 2.05-6.99 2.924-5.094 2.284 1.897-.64-1.299-5.309-2.251-2.12s-2.759 3.197-3.76 3.257Z" fill="#66D0FC"/><path d="M40.185 101.543c-.841 1.39-2.539.761-3.49.934 1.084-.333 1.263-1.376 1.817-1.95.554-.574 2.645-.59 1.673 1.016Zm-2.305 7.969c-.052.999-1.711 1.124-2.402 1.483.725-.484.398-1.108.587-1.578.189-.47 1.876-1.059 1.816.095Z" fill="#32C2FB"/></g><mask id="d" style="mask-type:alpha" maskUnits="userSpaceOnUse" x="81" y="34" width="41" height="22"><path d="M113.63 48.268c5.331 2.287 7.901-.99 8.007-2.473l-4.722-2.545-19.732-8.515-15.448 14.728 5.084 5.884c1.964.257 5.013 1.033 7.517-2.869 3.128-4.877 11.456-7.572 19.294-4.21Z" fill="#E7E5E9"/></mask><g mask="url(#d)"><path d="M114.446 48.944c5.528 2.41 8.189-1.035 8.298-2.593l-4.896-2.679-20.457-8.967-16 15.471 5.274 6.19c2.036.272 5.007 10.144 7.598 6.044 3.239-5.125 12.058-17.006 20.183-13.466Z" fill="#fff"/><path d="M85.85 51.38c7.11-6.106 13.12-5.375 15.817-4.031l-.848.36a7.264 7.264 0 0 0-3.858 3.882l-6.665 2.245c-4.445 1.725-11.558 3.65-4.446-2.456Z" fill="#FFE2D2"/></g><mask id="f" style="mask-type:alpha" maskUnits="userSpaceOnUse" x="1" y="29" width="121" height="66"><path d="M99.328 68.76c-29.87-22.642-54.436 7.218-54.434 26.234-5.835-16.804 3.108-30.319 3.108-30.319s-11.02 7.502-22.566 3.21c-11.545-4.291-26.76 8.923-22.953 3.368C17.902 48.757 31.71 50.468 38.997 53.124c13.758 5.016 20.692.023 26.47-4.613C78.902 37.734 89.508 33.84 97.234 32.067c10.241-2.347 14.518-2.06 14.518-2.06-5.061 7.755 12.264 14.838 9.736 16.116-6.007 3.037-9.25-4.554-20.261-4.555-4.729 0-9.451 3.922-10.977 6.946 14.589 3.886 9.97 20.92 9.078 20.245Z" fill="url(#e)"/></mask><g mask="url(#f)"><path d="M102.693 69.42C70.34 49.977 46.52 78.712 44.695 96.529c-8.91-17.909-1.61-31.432-1.61-31.432s-6.108 7.078-17.652 2.787c-11.545-4.29-26.761 8.925-22.954 3.37C17.9 48.755 30.313 41.282 37.27 44.712c6.957 3.43 23.195-8.28 28.68-13.258 32.947-29.894 48.727-3.237 48.163-2.471-7.964 10.794 9.901 15.85 7.373 17.13-6.006 3.037-10.117-6.127-21.128-6.039-8.81.071-14.064 6.137-15.591 9.162 20.033-2.815 18.886 20.76 17.927 20.185Z" fill="url(#g)"/><path d="M103.418 72.652c-32.354-19.445-56.173 9.29-57.998 27.107-8.91-17.909-6.265-27.12-6.265-27.12s-1.453 2.766-12.997-1.524c-11.545-4.291-26.761 8.924-22.954 3.37 15.421-22.499 28.27-19.413 35.227-15.982 6.957 3.43 19.49 1.171 24.976-3.807 32.946-29.895 51.994-23.248 51.43-22.482-7.964 10.794 18.974 11.313 17.633 13.81-8.102 15.09-18.04-.7-29.052-.61-8.809.07-3.993.758-5.519 3.782 20.033-2.815 6.478 24.032 5.519 23.456Z" fill="url(#h)"/><path d="M44.565 95.82c3.459-49.558 52.834-45.256 58.253-26.31-7.328 9.476-25.561-5.456-34.556 3.988-21.63 22.709-26.545 63.135-23.697 22.322Z" fill="#A62B2A"/><mask id="i" style="mask-type:alpha" maskUnits="userSpaceOnUse" x="-2" y="56" width="31" height="21"><path d="M28.586 62.202c-1.64-5.23-10.178-6.143-13.98-5.904l-16.212 9.135L.668 76.736l11.259-4.361c5.88.246 17.37-7.903 16.66-10.173Z" fill="#FDF8F7"/></mask><g mask="url(#i)"><path d="M29.93 62.45c-1.64-5.23-10.177-6.143-13.979-5.904L-.26 65.681l2.274 11.304 11.259-4.362c5.88.247 17.37-7.903 16.659-10.173Z" fill="#FFEDE3"/><path d="M102.799 72.802c-32.353-19.445-56.173 9.29-57.998 27.107-8.91-17.909-6.265-27.12-6.265-27.12s-1.453 2.766-12.997-1.525c-11.545-4.29-29.436 9.019-25.06 3.901C19.472 52.96 29.377 54.492 37.813 58.653c6.957 3.43 19.49 1.171 24.976-3.807 32.946-29.895 51.995-23.248 51.43-22.482-7.964 10.794 18.974 11.312 17.633 13.81-8.102 15.09-20.377-2.807-31.388-2.719-8.81.071-5.955 1.69-7.481 4.714 20.033-2.815 10.776 25.209 9.817 24.633Z" fill="#FFE2D2"/></g><path d="M21.606 62.428C14.233 63.778 5.155 70.11 1.79 72.712l5.64 5.117 33.409-4.763c5.264-4.995 9.95-11.992 9.157-11.213-7.915 7.777-19.174-1.113-28.39.575Z" fill="#4B3C46" fill-opacity=".1"/></g><path d="M93.489 92.89c0 8.987-7.287 16.273-16.276 16.273-8.99 0-16.276-7.286-16.276-16.274 0-8.988 7.287-16.274 16.276-16.274S93.489 83.9 93.489 92.889Z" fill="url(#j)"/><mask id="k" style="mask-type:alpha" maskUnits="userSpaceOnUse" x="50" y="66" width="54" height="54"><path d="M103.916 93.037c0 14.836-12.022 26.862-26.853 26.862-14.83 0-26.853-12.026-26.853-26.862 0-14.835 12.023-26.86 26.853-26.86 14.83 0 26.853 12.025 26.853 26.86Z" fill="#6F6A7B" stroke="#000" stroke-width=".043"/></mask><g mask="url(#k)"><path d="M103.938 93.037c0 14.847-12.032 26.883-26.875 26.883-14.842 0-26.875-12.036-26.875-26.883 0-14.846 12.033-26.882 26.875-26.882 14.843 0 26.875 12.036 26.875 26.882Z" fill="#3A3741"/><path fill-rule="evenodd" clip-rule="evenodd" d="M50.549 84.855c.008 2.751 1.35 6.603 6.658 0 5.308-6.604 6.635-2.752 6.635 0h6.01l16.153-4.766c.841-2.005 2.563-5.04 10.409-1.997 7.846 3.042-2.885-7.413-11.707-13.91l-24.88-1.613-9.278 22.285Zm19.326 23.056c-9.447-5.367-17.356-5.007-12.235 3.995 4.23 7.436 20.376 10.3 29.735 9.097 0 0 5.12-4.862 8.702-9.097 3.581-4.236 3.01-11.293-7.548-7.076-10.558 4.216-16.05 4.228-18.654 3.081Z" fill="#605B66"/><path d="M105.304 91.874c0 15.077-12.636 27.369-28.312 27.369-15.675 0-28.311-12.292-28.311-27.37 0-15.076 12.636-27.369 28.311-27.369 15.676 0 28.312 12.293 28.312 27.37Z" stroke="#3A3741" stroke-width="2.565"/></g><ellipse cx="76.894" cy="92.893" rx="27.043" ry="27.076" fill="url(#l)"/><ellipse cx="76.894" cy="92.893" rx="27.043" ry="27.076" fill="#fff" fill-opacity=".2"/><ellipse cx="76.894" cy="92.893" rx="27.043" ry="27.076" fill="url(#m)"/><ellipse cx="77.048" cy="91.85" rx="25.618" ry="25.71" fill="url(#n)"/><path fill-rule="evenodd" clip-rule="evenodd" d="M77.06 106.906c7.895 0 14.296-6.408 14.296-14.313 0-7.906-6.4-14.314-14.297-14.314-7.895 0-14.296 6.409-14.296 14.314s6.4 14.313 14.296 14.313Z" fill="url(#o)"/><path d="M75.786 92.122c-.047-.172-2.056-2.712-2.879-3.745l1.92-1.412 2.976 4.04H82.7v1.98h-4.484l-1.998 4.686-2.291-1c.626-1.477 1.907-4.376 1.86-4.549Z" fill="#26222C"/><path fill-rule="evenodd" clip-rule="evenodd" d="M77.06 97.843a5.588 5.588 0 0 0 5.593-5.584 5.588 5.588 0 0 0-5.594-5.583 5.588 5.588 0 0 0-5.593 5.584 5.588 5.588 0 0 0 5.594 5.582Zm8.97-5.584c0 4.952-4.02 8.961-8.97 8.961-4.951 0-8.97-4.009-8.97-8.96 0-4.952 4.019-8.961 8.97-8.961 4.95 0 8.97 4.009 8.97 8.96Zm-2.163 0c0 3.755-3.048 6.8-6.808 6.8s-6.807-3.045-6.807-6.8a6.803 6.803 0 0 1 6.808-6.798 6.803 6.803 0 0 1 6.807 6.799Zm.948 0c0 4.278-3.472 7.746-7.755 7.746-4.284 0-7.756-3.468-7.756-7.745 0-4.278 3.472-7.746 7.755-7.746 4.284 0 7.756 3.468 7.756 7.746Z" fill="#484250"/><mask id="p" style="mask-type:alpha" maskUnits="userSpaceOnUse" x="65" y="80" width="25" height="25"><path fill-rule="evenodd" clip-rule="evenodd" d="M75.684 80.89c.426-.704 1.857-.85 3.573-.55 2.015.353 2.676.964 2.52 1.844-.317.585-.985.797-2.106.44-.576-.183-1.482-.349-2.013-.368-.53-.019-1.164-.1-1.407-.18-.558-.182-.863-.698-.567-1.186Zm-6.764 2.768c-1.28 1.183-2.031 2.411-1.731 3.176.208.532.803.602 1.286.27.211-.146.66-.601.997-1.012.337-.41 1.018-1.03 1.513-1.378.963-.676 1.2-1.336.927-1.943-.603-.659-1.489-.503-2.992.887Zm19.052 3.18c-.806-1.544-1.795-2.592-2.611-2.501-.567.063-.79.619-.595 1.173.085.242.407.794.715 1.227.308.433.729 1.253.935 1.822.4 1.108.975 1.509 1.631 1.404.792-.412.873-1.309-.075-3.124Zm.454 10.47c.695-1.598.89-3.025.307-3.605-.405-.403-.977-.227-1.285.272-.135.219-.363.816-.506 1.328-.143.512-.517 1.354-.83 1.872-.61 1.007-.562 1.707-.068 2.152.817.36 1.565-.14 2.382-2.018Zm-4.74 4.899c-.064.82-1.277 1.595-2.944 2.098-1.96.591-2.824.343-3.079-.513.02-.666.522-1.155 1.683-1.341.597-.095 1.48-.355 1.963-.577.483-.221 1.085-.434 1.339-.472.58-.088 1.084.236 1.039.805Zm-13.638.391c1.41 1.025 2.76 1.523 3.45 1.079.48-.309.433-.907.013-1.316-.184-.179-.718-.531-1.186-.781-.468-.25-1.21-.798-1.647-1.216-.85-.814-1.543-.917-2.084-.53-.527.721-.201 1.56 1.454 2.764Zm-3.641-5.999c-.783-.248-1.264-1.606-1.377-3.346-.134-2.044.302-2.831 1.193-2.887.643.17 1.006.77.925 1.944-.041.604.012 1.525.119 2.045s.178 1.156.158 1.412c-.046.586-.474 1.004-1.018.832Z" fill="#38353F"/></mask><g mask="url(#p)" fill-rule="evenodd" clip-rule="evenodd"><path d="M75.684 80.89c.426-.704 1.857-.85 3.573-.55 2.015.353 2.676.964 2.52 1.844-.317.585-.985.797-2.106.44-.576-.183-1.482-.349-2.013-.368-.53-.019-1.164-.1-1.407-.18-.558-.182-.863-.698-.567-1.186Zm-6.764 2.768c-1.28 1.183-2.031 2.411-1.731 3.176.208.532.803.602 1.286.27.211-.146.66-.601.997-1.012.337-.41 1.018-1.03 1.513-1.378.963-.676 1.2-1.336.927-1.943-.603-.659-1.489-.503-2.992.887Zm19.052 3.18c-.806-1.544-1.795-2.592-2.611-2.501-.567.063-.79.619-.595 1.173.085.242.407.794.715 1.227.308.433.729 1.253.935 1.822.4 1.108.975 1.509 1.631 1.404.792-.412.873-1.309-.075-3.124Zm.454 10.47c.695-1.598.89-3.025.307-3.605-.405-.403-.977-.227-1.285.272-.135.219-.363.816-.506 1.328-.143.512-.517 1.354-.83 1.872-.61 1.007-.562 1.707-.068 2.152.817.36 1.565-.14 2.382-2.018Zm-4.74 4.899c-.064.82-1.277 1.595-2.944 2.098-1.96.591-2.824.343-3.079-.513.02-.666.522-1.155 1.683-1.341.597-.095 1.48-.355 1.963-.577.483-.221 1.085-.434 1.339-.472.58-.088 1.084.236 1.039.805Zm-13.638.391c1.41 1.025 2.76 1.523 3.45 1.079.48-.309.433-.907.013-1.316-.184-.179-.718-.531-1.186-.781-.468-.25-1.21-.798-1.647-1.216-.85-.814-1.543-.917-2.084-.53-.527.721-.201 1.56 1.454 2.764Zm-3.641-5.999c-.783-.248-1.264-1.606-1.377-3.346-.134-2.044.302-2.831 1.193-2.887.643.17 1.006.77.925 1.944-.041.604.012 1.525.119 2.045s.178 1.156.158 1.412c-.046.586-.474 1.004-1.018.832Z" fill="#26222C"/><path d="M75.218 80.211c.426-.703 1.857-.85 3.573-.55 2.015.354 2.676.965 2.52 1.844-.317.586-.985.798-2.106.441-.576-.183-1.482-.349-2.012-.368-.53-.019-1.165-.1-1.408-.18-.557-.182-.862-.698-.567-1.187Zm-6.764 2.769c-1.28 1.183-2.031 2.411-1.731 3.176.209.532.803.602 1.286.27.212-.146.66-.601.997-1.012.337-.41 1.018-1.031 1.513-1.379.963-.675 1.2-1.335.928-1.942-.604-.659-1.49-.503-2.993.887Zm19.052 3.18c-.807-1.544-1.796-2.592-2.612-2.501-.567.063-.79.619-.595 1.173.085.242.407.794.715 1.227.309.433.729 1.253.935 1.822.4 1.108.975 1.509 1.632 1.403.792-.411.873-1.308-.075-3.124Zm.454 10.47c.696-1.598.89-3.025.307-3.605-.404-.403-.977-.227-1.285.272-.135.219-.363.816-.506 1.328-.143.512-.517 1.354-.83 1.872-.61 1.007-.562 1.707-.068 2.152.817.36 1.565-.14 2.382-2.018Zm-4.74 4.899c-.064.82-1.277 1.595-2.944 2.098-1.96.591-2.824.343-3.079-.513.02-.666.522-1.155 1.683-1.341.598-.096 1.481-.355 1.964-.577.482-.222 1.084-.434 1.338-.473.58-.087 1.084.237 1.039.806Zm-13.638.391c1.41 1.025 2.76 1.523 3.45 1.079.48-.309.433-.907.013-1.316-.184-.179-.718-.531-1.186-.781-.468-.251-1.21-.798-1.646-1.216-.85-.814-1.544-.917-2.085-.53-.527.72-.2 1.56 1.454 2.764Zm-3.64-6c-.784-.247-1.265-1.605-1.378-3.345-.134-2.044.303-2.831 1.193-2.887.643.17 1.007.77.926 1.944-.042.604.011 1.524.118 2.045.107.52.178 1.156.159 1.412-.046.585-.475 1.004-1.019.832Z" fill="url(#q)"/></g><path fill-rule="evenodd" clip-rule="evenodd" d="M75.682 80.89c.426-.704 1.857-.85 3.573-.55 2.015.353 2.676.964 2.52 1.844-.317.585-.985.797-2.106.44-.576-.183-1.482-.349-2.013-.368-.53-.019-1.164-.1-1.407-.18-.558-.182-.863-.698-.567-1.186Zm-6.764 2.768c-1.28 1.183-2.031 2.411-1.731 3.176.208.532.803.602 1.286.27.211-.146.66-.601.997-1.012.337-.41 1.018-1.03 1.513-1.378.963-.676 1.2-1.336.927-1.943-.603-.659-1.489-.503-2.992.887Zm19.052 3.18c-.806-1.544-1.795-2.592-2.61-2.501-.568.063-.79.619-.596 1.173.085.242.407.794.715 1.227.308.433.729 1.253.935 1.822.4 1.108.975 1.509 1.631 1.404.792-.412.873-1.309-.075-3.124Zm.454 10.47c.696-1.598.89-3.025.307-3.605-.405-.403-.977-.227-1.285.272-.135.219-.363.816-.506 1.328-.143.512-.517 1.354-.83 1.872-.61 1.007-.562 1.707-.068 2.152.817.36 1.565-.14 2.382-2.018Zm-4.738 4.899c-.065.82-1.278 1.595-2.945 2.098-1.96.591-2.824.343-3.079-.513.02-.666.522-1.155 1.683-1.341.597-.095 1.48-.355 1.963-.577.483-.221 1.085-.434 1.339-.472.58-.088 1.084.236 1.039.805Zm-13.64.391c1.41 1.025 2.76 1.523 3.45 1.079.48-.309.433-.907.013-1.316-.184-.179-.718-.531-1.186-.781-.468-.25-1.21-.798-1.646-1.216-.851-.814-1.544-.917-2.085-.53-.527.721-.201 1.56 1.454 2.764Zm-3.64-5.999c-.784-.248-1.265-1.606-1.378-3.346-.134-2.044.302-2.831 1.193-2.887.643.17 1.007.77.925 1.944-.041.604.012 1.525.12 2.045.106.52.177 1.156.157 1.412-.045.586-.474 1.004-1.018.832Z" fill="url(#r)"/><path fill-rule="evenodd" clip-rule="evenodd" d="M77.088 97.424a5.171 5.171 0 0 0 5.169-5.174 5.171 5.171 0 0 0-5.169-5.174 5.171 5.171 0 0 0-5.168 5.174 5.171 5.171 0 0 0 5.168 5.174Zm0 .696a5.866 5.866 0 0 0 5.863-5.87 5.866 5.866 0 0 0-5.863-5.87 5.866 5.866 0 0 0-5.862 5.87 5.866 5.866 0 0 0 5.862 5.87Z" fill="#484250"/><path d="M164.835 41.77c1.42 1.36 2.13 3.06 2.13 5.1 0 2.04-.71 3.75-2.13 5.13-1.42 1.36-3.2 2.04-5.34 2.04h-2.73V61h-4.35V39.7h7.08c2.14 0 3.92.69 5.34 2.07Zm-3 7.32c.6-.58.9-1.32.9-2.22 0-.9-.3-1.64-.9-2.22-.6-.58-1.4-.87-2.4-.87h-2.67v6.18h2.67c1 0 1.8-.29 2.4-.87ZM170.14 61V39.7h4.35V61h-4.35Zm21.502-19.23c1.42 1.36 2.13 3.06 2.13 5.1 0 2.04-.71 3.75-2.13 5.13-1.42 1.36-3.2 2.04-5.34 2.04h-2.73V61h-4.35V39.7h7.08c2.14 0 3.92.69 5.34 2.07Zm-3 7.32c.6-.58.9-1.32.9-2.22 0-.9-.3-1.64-.9-2.22-.6-.58-1.4-.87-2.4-.87h-2.67v6.18h2.67c1 0 1.8-.29 2.4-.87Zm15.144 12.27c-2.42 0-4.37-.69-5.85-2.07-1.48-1.4-2.26-3.03-2.34-4.89h4.35c.16.94.59 1.67 1.29 2.19.7.5 1.55.75 2.55.75.9 0 1.63-.19 2.19-.57.56-.4.84-.93.84-1.59 0-1.18-.95-2.04-2.85-2.58l-2.25-.66c-1.74-.5-3.1-1.28-4.08-2.34-.98-1.06-1.48-2.38-1.5-3.96 0-1.94.65-3.47 1.95-4.59 1.3-1.14 3.03-1.71 5.19-1.71 2.18 0 3.95.66 5.31 1.98 1.36 1.3 2.08 2.8 2.16 4.5h-4.32c-.22-.84-.62-1.46-1.2-1.86-.58-.4-1.23-.6-1.95-.6-.8 0-1.46.18-1.98.54-.5.34-.76.82-.78 1.44-.02.64.19 1.16.63 1.56.44.4 1.12.73 2.04.99l2.49.69c3.68 1.02 5.52 3.17 5.52 6.45 0 1.84-.69 3.36-2.07 4.56-1.36 1.18-3.14 1.77-5.34 1.77Z" fill="url(#s)"/><path d="M221.569 61.36c-2.42 0-4.37-.69-5.85-2.07-1.48-1.4-2.26-3.03-2.34-4.89h4.35c.16.94.59 1.67 1.29 2.19.7.5 1.55.75 2.55.75.9 0 1.63-.19 2.19-.57.56-.4.84-.93.84-1.59 0-1.18-.95-2.04-2.85-2.58l-2.25-.66c-1.74-.5-3.1-1.28-4.08-2.34-.98-1.06-1.48-2.38-1.5-3.96 0-1.94.65-3.47 1.95-4.59 1.3-1.14 3.03-1.71 5.19-1.71 2.18 0 3.95.66 5.31 1.98 1.36 1.3 2.08 2.8 2.16 4.5h-4.32c-.22-.84-.62-1.46-1.2-1.86-.58-.4-1.23-.6-1.95-.6-.8 0-1.46.18-1.98.54-.5.34-.76.82-.78 1.44-.02.64.19 1.16.63 1.56.44.4 1.12.73 2.04.99l2.49.69c3.68 1.02 5.52 3.17 5.52 6.45 0 1.84-.69 3.36-2.07 4.56-1.36 1.18-3.14 1.77-5.34 1.77Zm10.944-.36V39.7h4.35v8.49h9.24V39.7h4.35V61h-4.35v-8.67h-9.24V61h-4.35Zm22.675 0V39.7h4.35V61h-4.35Zm28.102 0h-3.75l-10.92-13.89V61h-4.35V39.7h3.75l10.92 13.89V39.7h4.35V61Zm2.4 0 9.18-21.3h3.87l9.21 21.3h-4.56l-2.07-4.86h-9.09L290.19 61h-4.5Zm11.1-15.57-2.94 6.9h5.85l-2.91-6.9Z" fill="#fff"/><path d="m150.102 85 5.338-12.07h1.309L162.104 85h-1.649l-1.564-3.519h-5.627L151.734 85h-1.632Zm5.967-9.928-2.176 4.981h4.369l-2.193-4.981Zm7.51 9.928v-8.5h3.706c.941 0 1.66.21 2.159.629.499.42.748.98.748 1.683 0 .669-.278 1.218-.833 1.649.929.453 1.394 1.145 1.394 2.074 0 .714-.255 1.303-.765 1.768-.51.465-1.275.697-2.295.697h-4.114Zm1.462-1.275h2.737c.453 0 .81-.113 1.071-.34.272-.227.408-.538.408-.935s-.136-.703-.408-.918c-.261-.227-.618-.34-1.071-.34h-2.737v2.533Zm0-3.706h2.363c.873 0 1.309-.38 1.309-1.139 0-.397-.125-.68-.374-.85-.249-.181-.561-.272-.935-.272h-2.363v2.261ZM174.325 85v-7.157h-2.703V76.5h6.987v1.343h-2.822V85h-1.462Zm9.48.17c-1.28 0-2.346-.425-3.196-1.275-.838-.861-1.258-1.91-1.258-3.145s.42-2.278 1.258-3.128c.85-.861 1.916-1.292 3.196-1.292 1.27 0 2.324.43 3.162 1.292.85.85 1.275 1.893 1.275 3.128s-.425 2.284-1.275 3.145c-.838.85-1.892 1.275-3.162 1.275Zm-2.142-2.244c.556.59 1.27.884 2.142.884.873 0 1.581-.295 2.125-.884.544-.59.816-1.315.816-2.176 0-.861-.272-1.587-.816-2.176-.544-.59-1.252-.884-2.125-.884-.872 0-1.586.295-2.142.884-.544.59-.816 1.315-.816 2.176 0 .861.272 1.587.816 2.176Zm12.452 2.244c-1.281 0-2.34-.425-3.179-1.275-.839-.861-1.258-1.91-1.258-3.145s.419-2.278 1.258-3.128c.839-.861 1.898-1.292 3.179-1.292 1.054 0 1.966.295 2.737.884a4.157 4.157 0 0 1 1.547 2.278h-1.564a2.703 2.703 0 0 0-1.02-1.326c-.476-.329-1.043-.493-1.7-.493-.873 0-1.587.295-2.142.884-.544.59-.816 1.32-.816 2.193s.272 1.604.816 2.193c.555.59 1.269.884 2.142.884.657 0 1.224-.164 1.7-.493.476-.329.816-.77 1.02-1.326h1.564a4.148 4.148 0 0 1-1.53 2.295c-.771.578-1.689.867-2.754.867Zm9.841 0c-1.235 0-2.261-.42-3.077-1.258-.805-.839-1.207-1.893-1.207-3.162 0-1.28.391-2.335 1.173-3.162.793-.839 1.842-1.258 3.145-1.258 1.315 0 2.346.465 3.094 1.394.748.93 1.077 2.068.986 3.417h-6.919c.023.77.306 1.417.85 1.938.544.51 1.201.765 1.972.765 1.156 0 1.978-.476 2.465-1.428h1.496c-.215.793-.674 1.45-1.377 1.972-.703.521-1.57.782-2.601.782Zm1.666-6.936c-.465-.408-1.026-.612-1.683-.612s-1.247.198-1.768.595c-.51.397-.827.986-.952 1.768h5.304c-.136-.77-.436-1.354-.901-1.751Zm6.02 10.319h-1.462V76.5h1.462v1.309c.294-.43.708-.782 1.241-1.054a3.734 3.734 0 0 1 1.751-.425c1.178 0 2.164.43 2.958 1.292.804.861 1.207 1.904 1.207 3.128 0 1.224-.403 2.267-1.207 3.128-.794.861-1.78 1.292-2.958 1.292a3.86 3.86 0 0 1-1.751-.408c-.533-.283-.947-.64-1.241-1.071v4.862Zm.697-5.61c.544.59 1.235.884 2.074.884.838 0 1.53-.295 2.074-.884.544-.59.816-1.32.816-2.193s-.272-1.604-.816-2.193c-.544-.59-1.236-.884-2.074-.884-.839 0-1.53.295-2.074.884-.544.59-.816 1.32-.816 2.193s.272 1.604.816 2.193ZM220.904 85v-8.5h3.706c.941 0 1.661.21 2.159.629.499.42.748.98.748 1.683 0 .669-.277 1.218-.833 1.649.93.453 1.394 1.145 1.394 2.074 0 .714-.255 1.303-.765 1.768-.51.465-1.275.697-2.295.697h-4.114Zm1.462-1.275h2.737c.454 0 .811-.113 1.071-.34.272-.227.408-.538.408-.935s-.136-.703-.408-.918c-.26-.227-.617-.34-1.071-.34h-2.737v2.533Zm0-3.706h2.363c.873 0 1.309-.38 1.309-1.139 0-.397-.124-.68-.374-.85-.249-.181-.561-.272-.935-.272h-2.363v2.261ZM231.477 85h-1.309v-8.5h1.462v6.239l4.794-6.239h1.292V85h-1.445v-6.239L231.477 85Zm12.791.17c-1.28 0-2.34-.425-3.179-1.275-.838-.861-1.258-1.91-1.258-3.145s.42-2.278 1.258-3.128c.839-.861 1.899-1.292 3.179-1.292 1.054 0 1.967.295 2.737.884a4.152 4.152 0 0 1 1.547 2.278h-1.564a2.703 2.703 0 0 0-1.02-1.326c-.476-.329-1.042-.493-1.7-.493-.872 0-1.586.295-2.142.884-.544.59-.816 1.32-.816 2.193s.272 1.604.816 2.193c.556.59 1.27.884 2.142.884.658 0 1.224-.164 1.7-.493.476-.329.816-.77 1.02-1.326h1.564a4.148 4.148 0 0 1-1.53 2.295c-.77.578-1.688.867-2.754.867Z" fill="#A5B3C4"/><defs><linearGradient id="c" x1="80.915" y1="5.542" x2="73.895" y2="97.006" gradientUnits="userSpaceOnUse"><stop stop-color="#51EAFC"/><stop offset="1" stop-color="#2AB8FA"/></linearGradient><linearGradient id="e" x1="113.318" y1="29.766" x2="34.531" y2="102.073" gradientUnits="userSpaceOnUse"><stop stop-color="#FB8133"/><stop offset="1" stop-color="#FF5C00"/></linearGradient><linearGradient id="g" x1="113.318" y1="29.756" x2="34.523" y2="102.067" gradientUnits="userSpaceOnUse"><stop stop-color="#FF7347"/><stop offset="1" stop-color="#F55732"/></linearGradient><linearGradient id="h" x1="114.641" y1="43.254" x2="42.563" y2="99.813" gradientUnits="userSpaceOnUse"><stop stop-color="#FB841D"/><stop offset=".344" stop-color="#FF622D"/><stop offset="1" stop-color="#CE3331"/></linearGradient><linearGradient id="j" x1="77.213" y1="76.615" x2="77.213" y2="109.163" gradientUnits="userSpaceOnUse"><stop stop-color="#2C2635"/><stop offset="1" stop-color="#483F56"/></linearGradient><linearGradient id="l" x1="62.294" y1="112.616" x2="215.369" y2="53.84" gradientUnits="userSpaceOnUse"><stop stop-color="#373340"/><stop offset="1" stop-color="#3F3D49"/></linearGradient><linearGradient id="m" x1="62.294" y1="112.616" x2="215.369" y2="53.84" gradientUnits="userSpaceOnUse"><stop stop-color="#14152B"/><stop offset="1" stop-color="#3F3D49"/></linearGradient><linearGradient id="n" x1="77.017" y1="71.963" x2="77.103" y2="121.207" gradientUnits="userSpaceOnUse"><stop stop-color="#393640"/><stop offset="1" stop-color="#41404C"/></linearGradient><linearGradient id="o" x1="77.083" y1="107.874" x2="82.104" y2="73.085" gradientUnits="userSpaceOnUse"><stop stop-color="#fff"/><stop offset="1" stop-color="#D2C9D0"/></linearGradient><linearGradient id="q" x1="77.154" y1="56.819" x2="76.56" y2="101.15" gradientUnits="userSpaceOnUse"><stop stop-color="#323034"/><stop offset="1" stop-color="#5A5267"/><stop offset="1" stop-color="#746E7D"/></linearGradient><linearGradient id="r" x1="77.04" y1="80.192" x2="76.368" y2="116.513" gradientUnits="userSpaceOnUse"><stop stop-color="#38353F"/><stop offset="1" stop-color="#6F6A7B"/></linearGradient><linearGradient id="s" x1="229" y1="31" x2="229" y2="69" gradientUnits="userSpaceOnUse"><stop stop-color="#77E6FD"/><stop offset="1" stop-color="#26A4D9"/></linearGradient><filter id="a" x="1.167" y="-19.763" width="152.449" height="154.558" filterUnits="userSpaceOnUse" color-interpolation-filters="sRGB"><feFlood flood-opacity="0" result="BackgroundImageFix"/><feColorMatrix in="SourceAlpha" values="0 0 0 0 0 0 0 0 0 0 0 0 0 0 0 0 0 0 127 0" result="hardAlpha"/><feOffset dy="-1.381"/><feGaussianBlur stdDeviation="10"/><feColorMatrix values="0 0 0 0 0.133333 0 0 0 0 0.899807 0 0 0 0 1 0 0 0 0.15 0"/><feBlend in2="BackgroundImageFix" result="effect1_dropShadow_453_21472"/><feBlend in="SourceGraphic" in2="effect1_dropShadow_453_21472" result="shape"/></filter></defs></svg>